<svg id="圖層_1" data-name="圖層 1" xmlns="http://www.w3.org/2000/svg" viewBox="0 0 971.973 114.18">
  <defs>
    <style>
      .cls-1 {
        fill: #fff;
      }
    </style>
  </defs>
  <title>2018-07-14-精稿-電腦</title>
  <g>
    <path class="cls-1" d="M42.348,112.156a12.043,12.043,0,0,1-8.961-3.685,12.237,12.237,0,0,1-3.614-8.889V25.438a1.278,1.278,0,0,0-1.445-1.446H10.84A10.324,10.324,0,0,1,3.18,20.74,10.678,10.678,0,0,1,0,13.008,10.684,10.684,0,0,1,3.18,5.275a10.324,10.324,0,0,1,7.66-3.252H75.156a10.564,10.564,0,0,1,7.733,3.252,10.564,10.564,0,0,1,3.252,7.733,10.559,10.559,0,0,1-3.252,7.732,10.564,10.564,0,0,1-7.733,3.252H57.668a1.278,1.278,0,0,0-1.445,1.446V99.582a12.583,12.583,0,0,1-12.575,12.574Z"/>
    <path class="cls-1" d="M97.992,56.512q0-26.592,13.8-41.553T148.506,0q22.906,0,36.711,14.959t13.8,41.553q0,26.74-13.875,42.2T148.506,114.18q-22.764,0-36.639-15.465T97.992,56.512Zm74,0q0-15.9-6.287-24.932a20.822,20.822,0,0,0-34.326,0q-6.216,9.035-6.215,24.932,0,16.188,6.215,25.582t17.127,9.394q10.911,0,17.2-9.467T171.992,56.512Z"/>
    <path class="cls-1" d="M263.336,114.18q-22.258,0-33.459-13.153t-11.2-40.613V14.6a12.113,12.113,0,0,1,3.685-8.889,12.114,12.114,0,0,1,8.889-3.686h1.156A12.114,12.114,0,0,1,241.3,5.709,12.113,12.113,0,0,1,244.98,14.6V63.16q0,15.321,4.481,21.824t13.875,6.5q9.394,0,14.019-6.576T281.98,63.16V14.6a12.114,12.114,0,0,1,3.686-8.889,12.114,12.114,0,0,1,8.889-3.686h.289a12.112,12.112,0,0,1,8.888,3.686,12.114,12.114,0,0,1,3.686,8.889V60.414q0,27.608-10.912,40.686T263.336,114.18Z"/>
    <path class="cls-1" d="M415.094,101.172a7.638,7.638,0,0,1,1.011,3.613,7.11,7.11,0,0,1-1.156,3.758,6.658,6.658,0,0,1-6.215,3.613h-4.48a20.345,20.345,0,0,1-10.768-3.035,21.12,21.12,0,0,1-7.732-8.094l-13.731-26.3a2.334,2.334,0,0,0-2.168-1.3h-9.828a1.277,1.277,0,0,0-1.445,1.445V99.582a12.583,12.583,0,0,1-12.574,12.574h-1.3a12.581,12.581,0,0,1-12.574-12.574V14.6a12.113,12.113,0,0,1,3.685-8.889,12.114,12.114,0,0,1,8.889-3.686H372.6q43.068,0,43.07,34.688,0,22.113-17.777,31.219a1.265,1.265,0,0,0-.579,1.879ZM360.027,22.98a1.278,1.278,0,0,0-1.445,1.446V51.019a1.277,1.277,0,0,0,1.445,1.446h10.407q9.538,0,14.38-3.975t4.842-11.779q0-7.513-4.7-10.623T370.434,22.98Z"/>
    <path class="cls-1" d="M504.559,112.156a12.043,12.043,0,0,1-8.961-3.685,12.233,12.233,0,0,1-3.614-8.889V25.438a1.278,1.278,0,0,0-1.445-1.446H473.051a10.323,10.323,0,0,1-7.66-3.252,10.678,10.678,0,0,1-3.18-7.732,10.684,10.684,0,0,1,3.18-7.733,10.323,10.323,0,0,1,7.66-3.252h64.316A10.564,10.564,0,0,1,545.1,5.275a10.568,10.568,0,0,1,3.252,7.733A10.563,10.563,0,0,1,545.1,20.74a10.564,10.564,0,0,1-7.733,3.252H519.879a1.278,1.278,0,0,0-1.445,1.446V99.582a12.583,12.583,0,0,1-12.575,12.574Z"/>
    <path class="cls-1" d="M560.2,56.512q0-26.592,13.8-41.553T610.717,0q22.907,0,36.711,14.959t13.8,41.553q0,26.74-13.875,42.2T610.717,114.18q-22.764,0-36.639-15.465T560.2,56.512Zm74,0q0-15.9-6.287-24.932a20.822,20.822,0,0,0-34.326,0q-6.216,9.035-6.215,24.932,0,16.188,6.215,25.582t17.127,9.394q10.911,0,17.2-9.467T634.2,56.512Z"/>
    <path class="cls-1" d="M694.039,112.156a12.581,12.581,0,0,1-12.574-12.574V14.6a12.113,12.113,0,0,1,3.685-8.889,12.114,12.114,0,0,1,8.889-3.686h1.3a12.112,12.112,0,0,1,8.888,3.686,12.111,12.111,0,0,1,3.686,8.889V45.383c0,.1.072.144.217.144a.487.487,0,0,0,.361-.144l23.848-33.1a24.845,24.845,0,0,1,8.744-7.516,23.651,23.651,0,0,1,11.057-2.746h3.9a5.867,5.867,0,0,1,5.637,3.469,6.431,6.431,0,0,1,.722,2.891,6.567,6.567,0,0,1-1.3,3.758l-24.86,32.808a2.1,2.1,0,0,0-.144,2.457l32.375,53.91a7.89,7.89,0,0,1,1.011,3.758,6.847,6.847,0,0,1-1.011,3.469,6.659,6.659,0,0,1-6.215,3.613H758.5a21.343,21.343,0,0,1-10.984-2.963,21.831,21.831,0,0,1-7.95-7.877l-18.933-33.1a.669.669,0,0,0-.723-.434.971.971,0,0,0-.867.434L708.781,82.094a4.232,4.232,0,0,0-.867,2.6V99.582a12.583,12.583,0,0,1-12.574,12.574Z"/>
    <path class="cls-1" d="M817.758,112.156a12.581,12.581,0,0,1-12.574-12.574V74.723a6.7,6.7,0,0,0-.579-2.746L777.434,13.441a7.684,7.684,0,0,1-.868-3.468,7.655,7.655,0,0,1,1.3-4.192,7.706,7.706,0,0,1,6.793-3.758H787.7a17.44,17.44,0,0,1,10.262,3.252,18.113,18.113,0,0,1,6.648,8.6l4.77,12.574q1.156,3.327,8.816,24.281c0,.2.121.289.362.289s.361-.094.361-.289q1.011-2.743,9.106-24.281l4.769-12.574a18.1,18.1,0,0,1,6.649-8.6,17.66,17.66,0,0,1,10.406-3.252H852.3a7.707,7.707,0,0,1,6.793,3.758,7.655,7.655,0,0,1,1.3,4.192,7.7,7.7,0,0,1-.868,3.468L832.211,71.977a6.681,6.681,0,0,0-.578,2.746V99.582a12.583,12.583,0,0,1-12.574,12.574Z"/>
    <path class="cls-1" d="M870.945,56.512q0-26.592,13.8-41.553T921.459,0q22.907,0,36.711,14.959t13.8,41.553q0,26.74-13.875,42.2T921.459,114.18q-22.764,0-36.639-15.465T870.945,56.512Zm74,0q0-15.9-6.287-24.932a20.822,20.822,0,0,0-34.326,0q-6.216,9.035-6.215,24.932,0,16.188,6.215,25.582t17.127,9.394q10.911,0,17.2-9.467T944.945,56.512Z"/>
  </g>
</svg>
