<svg id="圖層_1" data-name="圖層 1" xmlns="http://www.w3.org/2000/svg" viewBox="0 0 1702.89 398.115">
  <defs>
    <style>
      .cls-1 {
        fill: #f7f5f2;
      }

      .cls-2 {
        fill: #233249;
      }
    </style>
  </defs>
  <title>2018-07-14-精稿-電腦-10</title>
  <path class="cls-1" d="M358.73,310.915c11.94-18.27,29.53-26.14,47.88-33.74C408.77,289.125,372.23,315.385,358.73,310.915Z"/>
  <path class="cls-1" d="M393.82,324.785a41.861,41.861,0,0,0-13.29,10.13c-4.87,5.33-10.11,7.82-18.97,4.26l39.63-36.46C405.6,316.4,403.3,320.545,393.82,324.785Z"/>
  <path class="cls-1" d="M519.868,263.215v.01c-10.72,5.38-21.41,10.84-32.18,16.12-17.51,8.58-35.07,17.04-53.18,24.37C457.478,278.985,487.468,268.655,519.868,263.215Z"/>
  <path class="cls-1" d="M527.148,279.865l-40.56,37.94c-1.21-.68-2.43-1.35-3.64-2.02,1.32-3.46,2.25-7.15,4.06-10.33,1.79-3.15,4.46-5.79,6.75-8.66l-2.54-2.66c-9.62,4.2-18.58,11.72-32.8,5.98,22.51-11.54,43.27-20.86,66.3-23.82Z"/>
  <path class="cls-1" d="M569.21,201.605c-17.95,14.95-36.82,23.52-58.43,28.21,5.87-12.22,44.6-31.56,58.42-28.22Z"/>
  <g>
    <path class="cls-2" d="M1696.45,394.545c-37.04-11.61-74.6-21.73-109.46-39.41a4,4,0,0,0-1.8-.04h-.08c0,.01.01.01.02.01l.37.25,12.53,8.28-.48,1.28v.01a36.031,36.031,0,0,1-5.6-1.56q-130.92-60.54-262.15-120.4a45.314,45.314,0,0,0-5.95-2.18.014.014,0,0,0-.02,0c-1.03-.3-2.08-.58-3.14-.85h-.02c-5.36-1.32-11.19-2.23-17.5-3.79a.037.037,0,0,0-.03-.01l10.96,19.32-2.25,2.25-.01.01a41.916,41.916,0,0,1-6.19-2.4c-8.73-5.09-16.9-11.46-26.13-15.32-32.98-13.79-57.65-39.51-86.5-59.19-14.43-9.84-28.58-19.21-46.01-22.74-1.15-.23-2.32-.44-3.5-.62-.87-.13-1.72-.29-2.56-.47-12.59-2.67-21.74-10.63-27.87-23.07a82.994,82.994,0,0,0-40.8-39.78c-21.59-10.03-42.55-21.44-58.81-39.93-1.75-1.99-4.51-3.09-7.59-3.68a47.247,47.247,0,0,0-9.17-.66h-.03c11.71,10.37,23.1,21.13,35.22,30.98,12.3,9.99,29.59,13.25,39.64,28.86-1.02.13-1.95.32-2.83.49-.58.13-1.14.24-1.67.34a8.091,8.091,0,0,1-3.28.15c-.12-.03-.25-.06-.37-.1-4.11-1.36-8.14-3.37-12.22-4.29a15.046,15.046,0,0,0-14.28,3.64.313.313,0,0,1-.1.05.686.686,0,0,1-.37-.02c-1.49-.31-5.69-3.29-7.73-5.36-17.67-17.82-34.99-35.99-52.82-53.66-3.44-3.4-8.4-5.78-13.09-7.18a4.039,4.039,0,0,0-.4-.08,3.892,3.892,0,0,0-1.26.06,12.112,12.112,0,0,0-6.14,3.76c-.8.96,1.06,5.19,2.75,6.96,2.35,2.47,5.55,4.24,8.59,5.96,21.11,11.93,38.99,27.4,52.86,47.41,3.21,4.62,7.19,7.67,12.23,8.64a20.634,20.634,0,0,0,6.6.14,98.451,98.451,0,0,1,15.26-.43,21.15,21.15,0,0,1,6.28.99c4.65,1.58,7.41,5.22,7.7,12.16.15,3.42,3.48,7.85,6.61,9.7a6.831,6.831,0,0,0,1.99.82,4.514,4.514,0,0,0,2,.03c2.11-.48,3.81-2.57,5.1-5.78a5.892,5.892,0,0,1,4.64-3.31,12.776,12.776,0,0,1,4.85.03,13.737,13.737,0,0,1,7.22,3.74,64.189,64.189,0,0,1,10.17,13.78c14.88,27.38,40.61,41.27,67.58,53.8l-.04-.03-38.08-30.48a29.323,29.323,0,0,1,6.37-2.44h.02c.51-.14,1.01-.25,1.51-.34a23.46,23.46,0,0,1,9.4.16,28.687,28.687,0,0,1,2.89.79,43.128,43.128,0,0,1,7.12,3.21c11.12,6.1,21.49,13.62,31.95,20.88a265.745,265.745,0,0,1,22.04,16.8c2.37,2.03,3.12,5.94,4.61,8.99-2.9,1.02-5.72,2.35-8.7,2.96-2.37.49-4.92.1-10.39.1h-.03c3.54,4.54,5.09,7.99,7.76,9.74q47.9,31.44,96.1,62.42c6.51,4.19,13.51,7.61,20.29,11.39l-1.14,2.36-.01.01c-5.38-2.37-11-4.33-16.11-7.18-35.54-19.82-70.97-39.85-106.48-59.73a69.915,69.915,0,0,0-11.33-5.03,21.673,21.673,0,0,0-3.4-.88,8.893,8.893,0,0,0-3.4.04c-3.21.74-4.22,3.92-2.55,9.42,2.77,9.08,7.22,17.63,10.65,26.52,1.47,3.8,2.19,7.88,3.25,11.84l-2.49,1.47-.01.01c-2.59-1.53-5.39-2.8-7.74-4.63-14.05-10.94-27.8-22.28-42.05-32.96a44.406,44.406,0,0,0-14.66-7.24h-.02c-1.29-.36-2.6-.67-3.91-.93a70.853,70.853,0,0,0-19.48-.79h-.03c-2.44,8.12,3.48,10.51,8.06,13.6,7.09,4.79,14.43,9.23,21.36,14.25,2.65,1.91,4.46,5,6.65,7.55l-1.98,2.94-.01.01-65.87-36.38-.02-.01-1.63,2.28c2.71,2.12,5.4,4.27,8.14,6.35,53.26,40.29,111.27,71.64,174.67,92.87,12.37,4.14,24.75,8.29,36.86,13.1,3.27,1.3,5.58,5.03,8.33,7.64-3.14,2.37-6.32,6.63-9.44,7.16a3.452,3.452,0,0,1-.64.05c-10.93-.18-21.82-2.09-34.04-3.49h-.03c4.74-11.25-1.04-15.02-8.37-18.35q-77.925-35.13-155.52-70.98c-12.88-5.96-25.24-13.08-37.68-19.95-8.17-4.52-16.23-9.17-25.15-10.98a37.311,37.311,0,0,0-13.34-.37,8.443,8.443,0,0,1-2.99-.15,45.51,45.51,0,0,1-4.46-1.29,86.5,86.5,0,0,0-9.17-2.57,20.206,20.206,0,0,0-7.83-.05,18.937,18.937,0,0,0-4.94,1.75,3.31,3.31,0,0,1-.82.28,5.582,5.582,0,0,1-2.15-.03c-3-.51-6.83-2.64-10.02-3.54,1.6-4.95-.84-11.99,4.86-14.82a4.224,4.224,0,0,1,.61-.28.488.488,0,0,0,.07-.03,5.1,5.1,0,0,1,.69-.24,4.5,4.5,0,0,1,.74-.21l.11-.03a2.221,2.221,0,0,1,.37-.09c.28-.06.59-.11.9-.16,1.62-.26,3.08-1.44,4.45-2.1-4.46-3.3-9.62-5.51-12.12-9.42-2.7-4.22-2.91-10.03-4.56-16.55.01.01.02.01.03.02,25.6,14.56,45.42,35.37,72.4,43.44l.01-.01,1.75-2.75a38.967,38.967,0,0,0-4.54-3.77c-11.16-6.79-22.41-13.43-33.58-20.2-26-15.74-47.14-36.15-61.24-63.45-1.92-3.71-5.19-6.73-8.78-11.26l-.02-.02c-3.82,9.15-1.4,15.56,2.75,21.16,3.97,5.34,8.85,10.01,13.41,14.89,3.92,4.2,8.72,8.04,4.63,14.75-.3.49-.5,1.53-.23,1.8,10.8,10.83.92,25.14,6.3,37.11,3,6.67,1.14,13.14-7.04,16.1-2.32.84-4.16,2.92-6.36,4.2-7.32,4.26-8.21,8.78-1.75,14.98,2.27,2.17,2.74,6.2,4.03,9.38-2.95-.05-7.08.76-9.54.36a2.656,2.656,0,0,1-1.83-.88c-3.58-4.94-5.34-11.3-7.35-17.25-1.4-4.15-1.06-11.61-3.16-12.27-.69-.21-1.39-.39-2.11-.54-5.19-1.07-10.96-.51-16.38.08a.5.5,0,0,0-.12.02c-1.3.32-2.86,4.41-2.97,6.77-.13,2.96,1.19,6,2.22,10.47v.01c-.4-.08-.8-.16-1.19-.24-9.08-1.8-17.73-2.72-25.58-1.26-.38.07-.77.15-1.15.23-9.17,1.99-17.2,7.41-23.45,18.73a.01.01,0,0,0-.01.01c-.26-.16-.53-.32-.8-.49-4.04-2.42-8.72-4.8-12.61-8.11-1.48-1.26-1.21-5.14-.95-7.74.29-2.96,1.8-5.78,2.21-8.74,1.4-10.1,1.76-20.43,4.11-30.28,1.12-4.69,2.93-10.65,9.12-11.71a13.29,13.29,0,0,1,3.55-.09c.16,2.16.41,4.01.41,5.86.01,6.74.32,9.73,2.54,10.06a3.9,3.9,0,0,0,1.49-.09,35.817,35.817,0,0,0,7.3-3.16c3.86-1.98,8.5-2.44,12.73-3.75,9.56-2.94,10.18-5.49,5.94-14.47-3.45-7.3-5.71-15.17-8.24-22.88-.38-1.17.66-2.81,1.31-5.26.01.02.01.03.02.05,2.76,8,4.69,15.08,7.73,21.64,1.25,2.69,4.68,4.88,7.62,6.01a.319.319,0,0,0,.14.03,1,1,0,0,0,.38-.02c1.5-.32,4.58-2.92,4.64-4.33.1-2.93-1.73-5.94-2.8-8.9-.32-.88-.78-1.7-1.5-3.24,1.89-2.22,4.38-4.34,5.83-7.03,2.85-5.27,8.19-10.67,0-16.43-1.35-.95-1.54-5.99-.29-7.6,1.62-2.09,5.23-2.64,8.46-4.06.35-4.19.04-10.02,1.45-15.39,4.1-15.61-3.93-27.83-10.65-40.35a5.123,5.123,0,0,0-3.02-1.94c-.51-.18-1.04-.34-1.58-.49a22.038,22.038,0,0,1-2.53-.85c-.01,0-.02-.01-.03-.01-.75,2.76-2.79,5.97-2.02,8.19a223.148,223.148,0,0,0,9.48,21.79,73.1,73.1,0,0,0,4.86,7.76l-2.2,2.64-.01.01c-3.24-2.43-6.38-5.02-9.77-7.23-2.31-1.51-5.61-4.07-7.53-4.39a1.724,1.724,0,0,0-.68,0,1.038,1.038,0,0,0-.31.11c-2.65,1.52-4.08,5.65-5.36,8.95-1.23,3.15-1.61,6.62-2.43,10.24-.19-.04-.37-.07-.55-.1-10.24-1.99-3.19-10.92-7.99-16.66l-.01-.01c-4.21,3.07-9.42,5.54-12.8,9.56-12.59,15-28.36,27.5-35.26,47.08-1.91,5.42-8.59,9.11-12.96,13.71-11.56,12.17-23.15,24.31-34.46,36.71-1.44,1.58-2.43,5.15-1.6,6.75.61,1.19,2.67,2.01,4.62,2.36a12.92,12.92,0,0,0,1.86.21,74.841,74.841,0,0,0,17.79-1.16,38.464,38.464,0,0,0,18.08-8.77,13.111,13.111,0,0,1,4.85-2.99h.03a92.052,92.052,0,0,1,9.89-1.57c-.12,3.56.68,7.47-.52,10.62-3.75,9.8-9.36,19.21-2.55,29.88.45.69.62,2.29.18,2.72-6.38,6.32-11.93,15.93-19.55,18.08-3.82,1.08-7.67,2.05-11.52,2.84-10.59,2.18-21.23,3-31.63,1.01a57.556,57.556,0,0,1-22.96-9.88,10.743,10.743,0,0,0-4.24-1.92,7.2,7.2,0,0,0-2.89.05c-2.23.47-4.3,2.01-6.15,4.44-1.93,2.54-4.05,4.92-6.06,7.4-3.39,4.19-6.46,8.12-11.43,9.24a15.174,15.174,0,0,1-6.1.02c-.39-.06-.78-.14-1.19-.24-.13-.03-.27-.06-.4-.08a8.642,8.642,0,0,0-2.95.06c-4.14.72-8.86,3.78-13.08,5.58-2.26.97-3.96,3.21-6.12,4.51a20.5,20.5,0,0,1-6.39,2.73,8.206,8.206,0,0,1-3.31.02c-3.43-.7-5.91-4-7.81-10.1-.01-.01-.01-.01-.01-.02-3.8,4.01-6.73,8.96-11.05,11.13a21.928,21.928,0,0,1-6.58,1.94,88.971,88.971,0,0,1-9.2.69,14.284,14.284,0,0,1-3.37-.3c-2.13-.41-4.27-1.15-6.39-1.6,1.52-2.81,2.88-5.72,4.62-8.4a56,56,0,0,1,4.65-5.55c-.28-.93-.57-1.85-.85-2.77-2.74.29-5.67.14-8.37.51-.48.07-.95.15-1.42.25a11.3,11.3,0,0,0-2.09.66c-14.01,6.05-27.73,12.8-41.63,19.13a104.875,104.875,0,0,1-12.4,4.62q-19.38,6.015-38.85,11.74a46.888,46.888,0,0,1-6.98.97h-.03l-.87-2.79c2.27-1.19,4.76-2.09,6.77-3.63,6.11-4.69,11.95-9.74,18.08-14.4,2.41-1.83,5.29-3.02,7.97-4.49q6.315-3.48,12.64-6.95l-1.01-3.19h-15.2l-.5-2.14,27.85-20.3c-.25-.92-.5-1.84-.75-2.75-3.57,0-7.13-.13-10.69.04-2.85.14-5.83,1.36-8.51.84-3.72-.73-7.11-1.29-10.21-.69-3.27.62-6.21,2.55-8.86,6.98a3.618,3.618,0,0,1-2.47,1.36c-3.4.69-9.19-.05-13.21.27h-.03c.07-4.36-1.65-10.1.48-12.86,17.34-22.34,34.58-44.98,60.37-58.68,1.9-1,3.85-1.89,6.4-3.13v.02c-2.77,19.78-20.47,25.03-33.92,34.1l2.15,2.75c.01,0,.02-.01.03-.01,5.41-1.37,10.85-3.56,16.26-4.67.23-.05.47-.1.7-.14a30.406,30.406,0,0,1,6.13-.56,27.711,27.711,0,0,1,5,.59c.24.05.48.11.73.16h.02c5.79,1.31,11.84,4.06,18.99,6.2a23.753,23.753,0,0,1-12.46,6.72c-7.82,1.59-15.88-.18-23.3,1.3a20.309,20.309,0,0,0-7.7,3.15,21.2,21.2,0,0,0,10.49,5.42c.19.04.38.08.57.11,8.06,1.48,16.73-.9,25.25.04l-13.2,23.44,2.37,2.19h.03c1.18-.19,2.35-.41,3.51-.65,36.2-7.46,59.89-37.5,91.54-54.44v.01c2.41,7.58-2.8,10.59-7,13.28-20.37,13.02-40.95,25.7-61.47,38.48-5.06,3.15-10.17,6.22-15.26,9.33l.9,2.97c.01,0,.02-.01.03-.01,4.11-1.1,8.33-1.9,12.31-3.36,9.55-3.5,18.81-7.89,28.54-10.69a5.617,5.617,0,0,1,.71-.16,17.616,17.616,0,0,1,6.76.37c1.14.23,2.3.49,3.45.72.9.18,1.8.34,2.68.45-.64,3.76-1.28,7.52-1.88,11.05.01,0,.02-.01.03-.01,6.73-1.85,14.46-11.41,15.49-21.45,1.76-16.99,12.12-25.96,27.2-30.77a7.025,7.025,0,0,1,.79-.2c2.54-.54,5.48.08,8.72.08-1.91,10.94-17.02,8.85-15.23,21.83.01,0,.02-.01.03-.01,3.22-1.39,5.65-2.34,7.99-3.46,7.34-3.5,14.81-6.78,21.9-10.74a30.741,30.741,0,0,0,9.26-7.95c5.4-7.08,9.57-15.18,15.39-21.85,8.29-9.51,16.94-18.92,26.65-26.89,11.55-9.46,23.72-18.01,31.66-30.92l-1.75-2.56-.01-.01c-3.43,2.32-7.16,4.3-10.23,7.03-10.69,9.53-21.02,19.48-31.79,28.92-3.12,2.74-7.26,4.32-10.93,6.44-.01,0-.01.01-.02.01l-2.79-2.54c3.43-4.85,5.79-11.54,10.46-14.23,17.32-9.98,26.33-27.27,38.93-41.37,3.5-3.92,7.13-7.74,11.38-12.34l-11.65-4.23c.66-.55,1.3-1.11,1.9-1.68.4-.38.79-.77,1.17-1.15a37.519,37.519,0,0,0,3.98-4.82c7.32-10.58,7.9-23.22,9.38-35.7-.4.04-.8.1-1.2.16-12.48,2.05-27.87,16.2-29.43,29.04.01-.02.03-.03.04-.05,2.82-3.55,4.02-6.33,6.07-7.28a11.262,11.262,0,0,1,2.79-.83c2.12-.39,4.4-.41,6.55-.71-.4,2.52-.04,5.55-1.33,7.47-7.1,10.52-15.71,20.15-16.69,33.81-.09,1.32-3.06,3.35-5.01,3.66a1.7,1.7,0,0,1-.38.04,25.576,25.576,0,0,0-3,.26c-.32.05-.63.1-.94.16-8.59,1.65-12.91,7.96-15.13,16.44-1.41,5.42-3.57,9.52-9.21,10.67a17.61,17.61,0,0,1-3.64.32h-.03c-1.09-10.14,6.85-16.03,10.12-23.76-.41-.12-.81-.22-1.21-.31l-.6-.12a14.845,14.845,0,0,0-5.56-.01c-4.67.93-8.23,4.35-9.6,9.67-1.72,6.68-3.02,9.94-5.28,10.32a3.044,3.044,0,0,1-1.23-.05c-1.93-.41-4.52-2.34-8.29-5.56a1.874,1.874,0,0,0-.79-.37,8.153,8.153,0,0,0-3.35.15c-2.4.48-5.08,1.65-6.2,2.99-5.08,6.03-8.76,13.23-13.08,19.91-3.24,5-6.21,9.85-12.03,10.98a16.1,16.1,0,0,1-5.83-.04,5.337,5.337,0,0,0-1.87.01c-5.67.99-10.33,10.64-8.6,16.99.65,2.39,1.32,6.26.07,7.46-15.55,14.95-30.23,31.15-51.32,38.77a3.548,3.548,0,0,1-.71.19,4.247,4.247,0,0,1-1.55,0,7.154,7.154,0,0,1-2.68-1.12c2.01-1.16,3.98-2.37,6.03-3.45,4.53-2.37,6.88-5.41,4.3-10.76-2.71-5.64-1.07-8.55,3.87-9.48a18.3,18.3,0,0,1,2.53-.3,32.611,32.611,0,0,0,4.75-.6c2.51-.54,4.67-1.44,5.89-2.9.85-3.43,1.02-7.23,2.67-10.21,4.57-8.23,8.95-16.76,14.87-23.98,7.43-9.06,16.43-16.82,24.5-25.38,6.7-7.14,12.57-15.13,19.74-21.73,2.21-2.03,5.5-2.89,8.66-3.69h.02c.85-.23,1.69-.44,2.5-.67h.02c.53-.16,1.05-.32,1.55-.5l10.43-24.75v-.01c-.63.2-1.16.34-1.61.46h-.02c-1.01.25-1.6.36-1.94.72-22.67,23.84-48.1,44.74-71.8,67.48-3.3,3.18-7.83,5.08-12.63,6.66-.01,0-.03.01-.04.01,7.15-15.72,24.18-22.61,32.13-38.35,0-.01.01-.01.01-.02-2.84,1.25-6.01,2.06-8.46,3.84-13.64,9.95-26.99,20.3-40.72,30.14a65,65,0,0,1-15.15,7.95c-.11.04-.23.08-.34.11a6.176,6.176,0,0,1-2.73-.06c-1.72-.34-3.59-1.09-5.3-1.41,1.42-2.21,2.32-5.21,4.33-6.49,13.68-8.76,27.65-17.07,41.4-25.73a54.033,54.033,0,0,0,14.65-12.71c-33.93,11.1-60.05,35.41-90.07,53-.01,0-.01.01-.02.01l-2.26-1.88c2.4-2.86,4.3-6.46,7.27-8.46,21.64-14.52,43.5-28.69,65.26-43.02,5.66-3.73,11.22-7.61,16.82-11.43-.47-.89-.95-1.78-1.43-2.68v-.01c-4.64,1.64-9.62,2.65-13.84,5.03q-22.83,12.99-45.21,26.75c-3.42,2.11-5.67,6.05-9.02,8.32-2.62,1.78-6.1,2.31-9.19,3.38-.01,0-.02.01-.03.01.68-3.29.29-7.59,2.24-9.68a83.346,83.346,0,0,1,16.04-13.46c56.53-35.77,113-71.65,169.98-106.69,12.69-7.81,26.12-14.77,40.99-17.6a75.732,75.732,0,0,1,10.53-1.26,10.907,10.907,0,0,0,1.4-.16,11.18,11.18,0,0,0,5.48-2.71,18.157,18.157,0,0,1,9.83-5.45c5.24-1.07,10.86-.11,16.76.13a145.308,145.308,0,0,0,33.11-2.67q3.21-.63,6.39-1.41l4.69-1.14c3.13-.78,6.26-1.57,9.37-2.38q6.99-1.845,13.96-3.77,4.665-1.29,9.31-2.62c12.36-3.54,24.69-7.24,37.01-10.95a55.223,55.223,0,0,1,5.37-1.32c.59-.11,1.18-.22,1.76-.3a43.2,43.2,0,0,1,14.36.13,48.358,48.358,0,0,1,16.01,6.16c6.21,3.67,12.91,6.52,19.39,9.75-.01-.01-.03-.02-.04-.03-18.89-16.92-39.87-23.71-64.97-15.13-17.73,6.06-35.74,11.52-53.95,15.93-18.64,4.52-37.13,12.67-57.01,6.6-8.15-2.48-14.65-.63-21.17,4.73-3.16,2.59-7.96,3.38-12.15,4.49-5.48,1.46-11.46,1.57-16.56,3.79-12.82,5.56-25.79,11.1-37.76,18.22-33.39,19.86-66.25,40.62-99.43,60.85-101.63,61.94-208.77,113.33-315.95,164.61-22.87,10.94-44.7,24.81-70.96,27a15.311,15.311,0,0,0-6.2,2.41c-21.91,13.07-45.86,13.06-69.54,8.71-19.55-3.6-36.58-.92-52.29,11.03-13.28,10.09-28.04,14.42-44.83,12.4-10.13-1.22-18.78,2.49-27.62,8.14-15.15,9.66-31.42,17.63-47.52,25.7-7.35,3.69-15.66,5.44-23.06,9.05-3.22,1.57-5.23,5.62-7.79,8.54.57.92,1.14,1.84,1.7,2.75,567.02,2.31,1134.05,8.81,1701.19-3.38A14.4,14.4,0,0,0,1696.45,394.545ZM569.2,201.6l.01.01c-17.95,14.95-36.82,23.52-58.43,28.21C516.65,217.6,555.38,198.255,569.2,201.6ZM393.82,324.785a41.861,41.861,0,0,0-13.29,10.13c-4.87,5.33-10.11,7.82-18.97,4.26l39.63-36.46C405.6,316.4,403.3,320.545,393.82,324.785Zm-35.09-13.87v.01l-.01-.01h.01c11.94-18.27,29.53-26.14,47.88-33.74C408.77,289.125,372.23,315.385,358.73,310.915Zm152.09-46.03c2-.41,4-.79,6.02-1.15,1-.18,2-.35,3-.52v.01c-10.72,5.38-21.41,10.84-32.18,16.12-17.49,8.57-35.04,17.02-53.13,24.35-.02.01-.03.01-.05.02C455.3,281.3,481.9,270.715,510.82,264.885Zm-24.26,52.92c-1.21-.68-2.43-1.35-3.64-2.02,1.32-3.46,2.25-7.15,4.06-10.33,1.79-3.15,4.46-5.79,6.75-8.66l-2.53-2.65-.01-.01c-5.8,2.53-11.36,6.27-17.97,7.58a23.9,23.9,0,0,1-8.95.11,28.843,28.843,0,0,1-5.88-1.71c18.99-9.74,36.74-17.89,55.66-21.98h.02c.7-.16,1.41-.31,2.11-.44,2.81-.56,5.64-1.03,8.51-1.4l2.43,3.57L486.57,317.8Z"/>
    <path class="cls-2" d="M1585.5,355.455c-7.3-2.94-14.82-5.42-21.86-8.89-71.04-34.96-141.17-71.92-213.29-104.46-41.16-18.58-73.16-49.18-110.57-72.38-11.64-7.21-23.34-14.36-34.92-21.7l-.05-.04c-3.44-2.17-6.87-4.38-10.28-6.6-9.01-5.87-17.41-12.66-26.24-18.82-9.59-6.69-19.52-12.88-28.98-19.73-11.62-8.42-22.9-17.3-34.33-25.99l.15.09c15.68,8.85,31.43,17.59,47.01,26.62a160.107,160.107,0,0,1,14.06,9.76c12.51,9.17,24.77,18.7,37.49,27.55,20.12,14,41.48,26.38,60.65,41.54,44.64,35.31,94.86,60.43,145.81,84.8,57.46,27.47,114.17,56.5,171.18,84.91a15.277,15.277,0,0,1,3.22,2.52l.06.05C1584.9,354.945,1585.2,355.205,1585.5,355.455Z"/>
    <path class="cls-2" d="M1092.829,69.135l-48.2-35.216C1063.6,41.691,1080.293,52.565,1092.829,69.135Z"/>
  </g>
  <path class="cls-1" d="M949.78,223.545c-17.85-7.13-26.42-24.97-21.74-41.58,1.18-4.16-.21-9.22-1.13-13.72-.66-3.19-2.5-6.14-3.81-9.18,6.67,5.4,13.37,10.14,19.2,15.79,3.24,3.14,6.81,7.64,7.14,11.77C950.4,198.585,949.78,210.655,949.78,223.545Z"/>
  <line class="cls-1" x1="1204.81" y1="147.985" x2="1105.13" y2="76.935"/>
  <path class="cls-1" d="M1585.528,355.355l-.39-.26h.05l-.55-.41c.29.26.59.52.89.77-7.3-2.94-14.82-5.42-21.86-8.89-71.04-34.96-141.17-71.92-213.29-104.46-41.16-18.58-73.16-49.18-110.57-72.38-11.64-7.21-23.34-14.36-34.92-21.7l-.05-.04c-3.44-2.17-6.87-4.38-10.28-6.6-9.01-5.87-17.41-12.66-26.24-18.82-9.59-6.69-19.52-12.88-28.98-19.73-11.62-8.42-22.9-17.3-34.33-25.99l.15.09-76.33-54.42c-6.48-3.23-13.18-6.08-19.39-9.75-11.92-7.05-24.07-8.7-37.5-4.67-24.65,7.41-49.33,14.84-74.34,20.86a145.349,145.349,0,0,1-39.53,4.08c-9.76-.4-18.76-2.75-26.56,5.32a11.14,11.14,0,0,1-6.91,2.87c-19.16.93-35.88,9.26-51.49,18.86-56.98,35.04-113.45,70.92-169.98,106.69a83.346,83.346,0,0,0-16.04,13.46c-1.95,2.09-1.56,6.39-2.24,9.68,3.1-1.08,6.59-1.6,9.22-3.39,3.35-2.27,5.6-6.21,9.02-8.32q22.38-13.755,45.21-26.75c4.22-2.38,9.2-3.39,13.84-5.03.48.9.96,1.8,1.43,2.69-5.6,3.82-11.16,7.7-16.82,11.43-21.76,14.33-43.62,28.5-65.26,43.02-2.97,2-4.87,5.6-7.27,8.46l2.26,1.88c30.03-17.59,56.16-41.91,90.1-53.02a54.111,54.111,0,0,1-14.66,12.72c-13.75,8.66-27.72,16.97-41.4,25.73-2.01,1.28-2.91,4.28-4.33,6.49,2.82.53,6.06,2.21,8.37,1.36a65,65,0,0,0,15.15-7.95c13.73-9.84,27.08-20.19,40.72-30.14,2.45-1.78,5.62-2.59,8.46-3.84-7.95,15.75-24.99,22.64-32.14,38.37,4.81-1.58,9.36-3.48,12.67-6.67,23.7-22.74,49.13-43.64,71.8-67.48.5-.52,1.52-.53,3.57-1.18l-10.43,24.76c-4.03,1.44-9.54,1.9-12.75,4.86-7.17,6.6-13.04,14.59-19.74,21.73-8.07,8.56-17.07,16.32-24.5,25.38-5.92,7.22-10.3,15.75-14.87,23.98-1.65,2.98-1.82,6.78-2.67,10.21-1.96,2.33-6.3,3.24-10.67,3.5-6.83.4-9.5,3.27-6.37,9.78,2.58,5.35.23,8.39-4.3,10.76-2.05,1.08-4.02,2.29-6.03,3.45,2.03,1.3,3.6,1.41,4.94.93,21.09-7.62,35.77-23.82,51.32-38.77,1.25-1.2.58-5.07-.07-7.46-1.92-7.03,4-18.1,10.44-17,9.97,1.7,13.71-4.49,17.89-10.94,4.32-6.68,8-13.88,13.08-19.91,1.97-2.35,8.71-4.16,10.34-2.77,9.76,8.32,11.54,8.03,14.8-4.71,2.02-7.87,8.84-11.58,16.97-9.23-3.27,7.73-11.21,13.62-10.12,23.76,8.45.06,11.2-4.53,12.88-10.99,2.53-9.68,7.81-16.53,19.04-16.86,1.92-.05,5.32-2.29,5.42-3.7.98-13.66,9.59-23.29,16.69-33.81,1.29-1.92.93-4.95,1.33-7.47-3.14.44-6.57.27-9.34,1.54-2.06.95-3.26,3.76-6.11,7.33,1.61-13.25,17.96-27.9,30.63-29.2-1.86,15.66-2.3,31.57-16.43,43.35l11.65,4.23c-4.25,4.6-7.88,8.42-11.38,12.34-12.6,14.1-21.61,31.39-38.93,41.37-4.67,2.69-7.03,9.38-10.46,14.23l2.79,2.54c3.68-2.12,7.82-3.71,10.95-6.45,10.77-9.44,21.1-19.39,31.79-28.92,3.07-2.73,6.8-4.71,10.23-7.03l1.76,2.57c-7.94,12.91-20.11,21.46-31.66,30.92-9.71,7.97-18.36,17.38-26.65,26.89-5.82,6.67-9.99,14.77-15.39,21.85a30.741,30.741,0,0,1-9.26,7.95c-7.09,3.96-14.56,7.24-21.9,10.74-2.35,1.12-4.79,2.08-8.02,3.47-1.79-12.98,13.32-10.89,15.23-21.83-3.58,0-6.8-.75-9.51.12-15.08,4.81-25.44,13.78-27.2,30.77-1.03,10.05-8.78,19.63-15.52,21.46.6-3.53,1.24-7.29,1.88-11.05-4.56-.55-9.53-2.54-13.6-1.38-9.73,2.8-18.99,7.19-28.54,10.69-3.99,1.46-8.22,2.26-12.34,3.37l-.9-2.97c5.09-3.11,10.2-6.18,15.26-9.33,20.52-12.78,41.1-25.46,61.47-38.48,4.2-2.69,9.41-5.7,7-13.29-32.67,17.49-56.86,48.93-95.08,55.09l-2.37-2.19,13.2-23.44c-12.6-1.39-25.52,4.46-36.31-5.57,13.03-8.89,29.58,2.66,43.46-11.17-9.55-2.86-17.12-6.79-24.77-6.95s-15.39,3.43-23.09,5.38l-2.15-2.75c13.45-9.07,31.16-14.32,33.92-34.12-2.55,1.24-4.5,2.13-6.4,3.13-25.79,13.7-43.03,36.34-60.37,58.68-2.13,2.76-.41,8.5-.48,12.86,5.43-.43,14.09,1.07,15.71-1.63,5.14-8.6,11.4-7.78,19.04-6.29,2.68.52,5.66-.7,8.51-.84,3.57-.17,7.14-.04,10.72-.04.25.91.5,1.83.75,2.75l-27.85,20.3.5,2.14h15.2l1.01,3.19q-6.33,3.465-12.64,6.95c-2.68,1.47-5.56,2.66-7.97,4.49-6.13,4.66-11.97,9.71-18.08,14.4-2.01,1.54-4.5,2.44-6.77,3.63l.87,2.79a47.284,47.284,0,0,0,7.01-.97q19.47-5.73,38.85-11.74a104.875,104.875,0,0,0,12.4-4.62c13.9-6.33,27.62-13.08,41.63-19.13,3.51-1.51,7.9-1,11.88-1.42.28.92.57,1.84.85,2.77a56,56,0,0,0-4.65,5.55c-1.74,2.68-3.1,5.59-4.62,8.4,3.24.69,6.52,2.05,9.73,1.9,5.35-.25,11.23-.33,15.81-2.63,4.32-2.17,7.25-7.12,11.05-11.13,3.35,10.79,8.51,12.8,17.52,7.37,2.16-1.3,3.86-3.54,6.12-4.51,5.4-2.3,11.63-6.68,16.43-5.56,9.78,2.29,13.93-3.1,18.72-9.02,2.01-2.48,4.13-4.86,6.06-7.4,3.7-4.86,8.28-6.14,13.28-2.57,20.87,14.9,43.86,12.31,66.11,6.03,7.62-2.15,13.17-11.76,19.55-18.08.44-.43.27-2.03-.18-2.72-6.81-10.67-1.2-20.08,2.55-29.88,1.2-3.15.4-7.06.52-10.62a92.6,92.6,0,0,0-9.92,1.57,13.111,13.111,0,0,0-4.85,2.99c-10.38,9.08-22.94,10.37-35.9,9.93-2.28-.07-5.64-.99-6.45-2.57-.83-1.6.16-5.17,1.6-6.75,11.31-12.4,22.9-24.54,34.46-36.71,4.37-4.6,11.05-8.29,12.96-13.71,6.9-19.58,22.67-32.08,35.26-47.08,3.38-4.02,8.59-6.49,12.8-9.56,4.9,5.84-2.49,14.99,8.55,16.77.82-3.62,1.2-7.09,2.43-10.24,1.28-3.3,2.71-7.43,5.36-8.95,1.54-.88,5.75,2.47,8.52,4.28,3.39,2.21,6.53,4.8,9.77,7.23l2.21-2.65a73.1,73.1,0,0,1-4.86-7.76,223.148,223.148,0,0,1-9.48-21.79c-.77-2.22,1.27-5.43,2.02-8.19,2.46,1.06,6.18,1.44,7.16,3.29,6.72,12.52,14.75,24.74,10.65,40.35-1.41,5.37-1.1,11.2-1.45,15.39-3.23,1.42-6.84,1.97-8.46,4.06-1.25,1.61-1.06,6.65.29,7.6,8.19,5.76,2.85,11.16,0,16.43-1.45,2.69-3.94,4.81-5.83,7.03.72,1.54,1.18,2.36,1.5,3.24,1.07,2.96,2.9,5.97,2.8,8.9-.06,1.6-4.05,4.75-5.16,4.32-2.94-1.13-6.37-3.32-7.62-6.01-3.05-6.57-4.98-13.67-7.75-21.69-.65,2.45-1.69,4.09-1.31,5.26,2.53,7.71,4.79,15.58,8.24,22.88,4.24,8.98,3.62,11.53-5.94,14.47-4.23,1.31-8.87,1.77-12.73,3.75-10.39,5.32-11.31,4.93-11.33-6.81,0-1.85-.25-3.7-.41-5.86-9.11-.91-11.36,6.31-12.67,11.8-2.35,9.85-2.71,20.18-4.11,30.28-.41,2.96-1.92,5.78-2.21,8.74-.26,2.6-.53,6.48.95,7.74,4.15,3.53,9.2,6,13.41,8.6,12.04-21.81,30.67-21.72,51.38-17.47-1.03-4.48-2.35-7.52-2.22-10.48.11-2.42,1.75-6.65,3.06-6.79,6.17-.67,12.8-1.31,18.52.46,2.1.66,1.76,8.12,3.16,12.27,2.01,5.95,3.77,12.31,7.35,17.25,1.38,1.92,7.44.45,11.37.52-1.29-3.18-1.76-7.21-4.03-9.38-6.46-6.2-5.57-10.72,1.75-14.98,2.2-1.28,4.04-3.36,6.36-4.2,8.18-2.96,10.04-9.43,7.04-16.1-5.38-11.97,4.5-26.28-6.3-37.11-.27-.27-.07-1.31.23-1.8,4.09-6.71-.71-10.55-4.63-14.75-4.56-4.88-9.44-9.55-13.41-14.89-4.15-5.6-6.57-12.01-2.75-21.16,3.6,4.54,6.88,7.56,8.8,11.28,14.1,27.3,35.24,47.71,61.24,63.45,11.17,6.77,22.42,13.41,33.58,20.2a38.967,38.967,0,0,1,4.54,3.77l-1.76,2.76c-26.99-8.07-46.82-28.9-72.43-43.46,1.65,6.52,1.86,12.33,4.56,16.55,2.5,3.91,7.66,6.12,12.12,9.42-1.38.66-2.85,1.85-4.48,2.1-10.06,1.54-6.46,10.11-8.32,15.86,4.4,1.24,10,4.81,12.99,3.29,8.02-4.1,14.72-1.33,21.94.87,2.42.74,5.07,1.8,7.42,1.44,14.69-2.25,26.48,4.7,38.52,11.35,12.44,6.87,24.8,13.99,37.68,19.95q77.6,35.85,155.52,70.98c7.33,3.33,13.11,7.1,8.37,18.35,12.22,1.4,23.11,3.31,34.04,3.49,3.33.05,6.74-4.67,10.11-7.21-2.75-2.61-5.06-6.34-8.33-7.64-12.11-4.81-24.49-8.96-36.86-13.1-63.4-21.23-121.41-52.58-174.67-92.87-2.74-2.08-5.43-4.23-8.14-6.35l1.63-2.28,65.89,36.39,1.99-2.95c-2.19-2.55-4-5.64-6.65-7.55-6.93-5.02-14.27-9.46-21.36-14.25-4.58-3.09-10.5-5.48-8.06-13.6,13.75-1.13,26.86.52,38.1,8.96,14.25,10.68,28,22.02,42.05,32.96,2.35,1.83,5.15,3.1,7.74,4.63l2.5-1.48c-1.06-3.96-1.78-8.04-3.25-11.84-3.43-8.89-7.88-17.44-10.65-26.52-2.55-8.38,1.13-11.38,9.35-8.58a69.915,69.915,0,0,1,11.33,5.03c35.51,19.88,70.94,39.91,106.48,59.73,5.11,2.85,10.73,4.81,16.11,7.18l1.15-2.37c-6.78-3.78-13.78-7.2-20.29-11.39q-48.2-30.975-96.1-62.42c-2.67-1.75-4.22-5.2-7.76-9.74,5.49,0,8.04.39,10.42-.1,2.98-.61,5.8-1.94,8.7-2.96-1.49-3.05-2.24-6.96-4.61-8.99a265.745,265.745,0,0,0-22.04-16.8c-10.46-7.26-20.83-14.78-31.95-20.88-7.48-4.1-16.12-7.13-27.31-1.38l38.12,30.51c-26.97-12.53-52.7-26.42-67.58-53.8a64.189,64.189,0,0,0-10.17-13.78c-4.93-5.09-14.73-5.38-16.71-.46-2.02,5.03-5.05,7.32-9.09,4.93-3.13-1.85-6.46-6.28-6.61-9.7-.41-9.65-5.58-12.92-14.01-13.15a98.451,98.451,0,0,0-15.26.43c-8.3,1.07-14.31-2.3-18.8-8.78-13.87-20.01-31.75-35.48-52.86-47.41-3.04-1.72-6.24-3.49-8.59-5.96-1.69-1.77-3.55-6-2.75-6.96,1.75-2.09,5.64-4.38,7.8-3.74,4.69,1.4,9.65,3.78,13.09,7.18,17.83,17.67,35.15,35.84,52.82,53.66,2.34,2.37,7.51,5.93,8.2,5.33,9.3-8.13,17.72-2.25,26.5.65,2.02.67,4.63-.44,8.15-.88-10.05-15.61-27.34-18.87-39.64-28.86-12.12-9.85-23.51-20.61-35.22-30.98,6.02-.05,13.35.43,16.79,4.34,16.26,18.49,37.22,29.9,58.81,39.93a82.994,82.994,0,0,1,40.8,39.78c6.53,13.26,16.5,21.43,30.4,23.54,19.08,2.9,34.15,12.86,49.54,23.36,28.85,19.68,53.52,45.4,86.5,59.19,9.23,3.86,17.4,10.23,26.13,15.32a41.916,41.916,0,0,0,6.19,2.4l2.26-2.26-10.96-19.32c10.12,2.51,19,3.34,26.66,6.83q131.235,59.865,262.15,120.4a36.031,36.031,0,0,0,5.6,1.56l.48-1.29Zm-643.2-180.5c3.24,3.14,6.81,7.64,7.14,11.77.96,11.96.34,24.03.34,36.92-17.85-7.13-26.42-24.97-21.74-41.58,1.18-4.16-.21-9.22-1.13-13.72-.66-3.19-2.5-6.14-3.81-9.18C929.8,164.465,936.5,169.205,942.328,174.855Z"/>
  <polyline class="cls-1" points="1585.94 352.685 1585.5 352.355 1585.16 352.095"/>
  <line class="cls-1" x1="1584.61" y1="351.685" x2="1584.55" y2="351.635"/>
</svg>
