<svg id="圖層_1" data-name="圖層 1" xmlns="http://www.w3.org/2000/svg" viewBox="0 0 379.122 503.468"><defs><style>.cls-1{fill:none;stroke:#cacaca;stroke-miterlimit:10;}</style></defs><title>2018-07-14-精稿-電腦</title><path class="cls-1" d="M286.843,7.427C285.28,5.4,282.83.417,279.832.5c-3.337.085-3.168,4.6-3.379,6.926-1.436.761-2.407.972-3.041,2.577a10.652,10.652,0,0,0-.464,5.405c.676,3.126,3.336,5.617,5.152,8.194.972,1.393,1.732,2.28,1.478,4.138a15.263,15.263,0,0,1-.718,2.112c-.422,1.225-.042,1.6.127,2.788a25.58,25.58,0,0,1-.169,5.405c-.126,1.816.085,3.379-.591,5.111a7.088,7.088,0,0,0-1.436,1.182c2.576,2.2,2.407,8.658.929,11.53-.8,1.6-2.576,2.407-3.632,3.885-1.309,1.859-1.351,3.8,1.52,3.675,1.563,3.209.676,8.953,0,12.289a13.88,13.88,0,0,0-3.294,1.352,11.964,11.964,0,0,1-3.843.76c-2.872.507-4.646-.929-7.433-1.351-.718-2.872-9.8-1.479-9.08,2.111.169.845,1.1,1.394,1.52,2.112.465.8.465,1.689.845,2.492.8,1.816,1.943,3.125.76,5.152-1.731,3.041-5.195,5.406-8.024,7.433-1.436,1.014-3.252,1.563-4.561,2.7-1.31,1.1-1.943,3.294-2.365,4.815-.93,3.209-1.352,7.348.971,10.051a14.88,14.88,0,0,0,3.632,3.125c1.267.887,3.252,1.69,3.97,3,1.309.465,2.238,3.463,2.534,4.688.591,2.323.127,3.167-1.858,4.054-3.3,1.478-3.463,7.053-.676,9.545,1.225,1.014,3.8,1.774,5.364,2.323.929.3,1.013.8,1.985,0a6.793,6.793,0,0,0,1.309-2.576c.464-2.028-.507-3.886.042-5.871a13.667,13.667,0,0,1,2.83-4.814c.886-.929,2.365-2.7,3.8-2.07.506.211.8,1.352,1.393,1.69a8.633,8.633,0,0,0,2.492.591c1.647.253,3.632,1.1,4.941-.254.972-1.055,1.394-3.378,3.041-3.885.338-1.689-3.083-2.787-4.35-3.041-1.816-.464-3.252-.507-4.35-2.365-.507-.887.085-1.816-.3-2.492-.591-1.013-1.858-.675-2.871-.76-1.69-.127-4.1.127-5.871-.3-3.8-1.055-6.8-5.363-4.983-9.5.76-1.689,2.322-3.59,4.1-3.885a20.259,20.259,0,0,1,6.377.126c2.83.76,3.506,4.519,4.477,6.842a3.153,3.153,0,0,0,1.774-1.689,1.23,1.23,0,0,1,.422-.085c.043-1.267,2.788-3.674,3.844-4.434,1.478-.972,1.182-1.816,2.829-2.83,3.125-1.816,9.291-2.914,13.177-2.492,3.21.3,6.631,4.139,9.038,6.209,3,2.534,6.25,5.068,9.84,6.377,3,1.1,5.828.676,8.658,2.2,1.309.676,2.618.929,3.885,1.478a28.909,28.909,0,0,0,4.646,1.774c.422-4.266-1.013-7.855.211-11.868.634-2.027.761-4.012,1.352-5.954a19.837,19.837,0,0,1,2.449-4.688c1.943-2.872,3.463-6.251,6.251-8.447a25.76,25.76,0,0,0,3.928-3.548c1.013-1.182,2.534-3.083,4.054-3.463a5.6,5.6,0,0,1,2.914.465c1.056.253,2.323.3,3.336.549,2.07.464,4.1,1.436,6.124.127-2.069.084-2.407-4.055-.8-5.026,2.407-1.436,2.829,2.7,4.645,2.112.93-2.577,6.5-5.7,9.081-6.589,1.1-.422,2.322-.253,3.294-1.182a12.142,12.142,0,0,0,1.943-2.45,20.573,20.573,0,0,1,1.267-2.576,12.291,12.291,0,0,0,1.858-2.407c-2.154.886-6.335,3.463-8.616,2.829-1.225-2.745-3.463-4.645-5.026-7.095a72.75,72.75,0,0,1-3.632-8.024c-1.1-3.252-.126-5.617,1.31-8.616a28.04,28.04,0,0,0,2.154-4.561,23.183,23.183,0,0,0-.043-5.406c-1.393.042-4.139,2.534-4.941,3.759-.8,1.351-1.056,3.252-1.943,4.772-1.858,3.252-5.912,4.646-9.333,5.617-3.717,1.014-8.531.127-12.121-.844-1.943-.55-9.334-2.07-11.107-3-1.648-.887-3.633-1.436-5.237-2.534C318.517,34.794,298.161,22.124,286.843,7.427Z"/><path class="cls-1" d="M259.011,357.667c0,2.408-.211,3.675-2.365,4.815-1.1.591-1.859.676-2.492,1.858a23.44,23.44,0,0,0-1.056,3.041,7.892,7.892,0,0,1-3-.253,43.3,43.3,0,0,1-.8-9.756c0-1.267-.042-3.252-1.309-3.886-1.436-.718-3.674.592-4.815,1.1-1.182.507-2.956,1.1-3.674,2.239-.845,1.351-.676,3.674-1.014,5.152-.675,2.872-3.716,5.153-3.378,8.447-1.436-.085-2.408.929-3.843,1.056s-2.957.126-4.393.253c-3.04.211-6,.549-9.038.76-2.787.211-4.983-.253-7.728.254-2.07.422-5.237,3.167-7.433,2.491.169-1.942,4.392-2.7,4.941-4.519.718-2.449-2.956-1.816-4.223-1.351-1.774.676-3.675,1.774-5.322.169a7.323,7.323,0,0,1-1.858-4.561c0-.929.76-2.027-.253-2.576-.634-.338-2.239.253-2.788.591a10.843,10.843,0,0,0-3.378,3.547c-.8,1.267-2.154,3.21-2.323,4.646-.127,1.267-.127.887,1.013,1.52.845.465,1.563.93,2.408,1.479,2.956,1.985,6.335,2.914,8.489,5.955,1.182,1.6,1.773,2.956.253,4.518-1.309,1.31-3.548,1.183-5.237,1.479a15.656,15.656,0,0,0-5.152,1.816c-1.352.718-3.97,1.773-4.6,3.378-.338.929.211,1.859.211,2.788a4.5,4.5,0,0,1-1.1,3.04c-1.267,1.648-2.872,1.31-4.265,2.7-3,3.041-1.014,7.138-2.45,10.685-.76,1.943-2.449,2.323-4.054,3.168-1.774.929-2.576,1.689-4.815.971-1.6-.506-3.125-1.267-4.688-1.773-1.478-.507-4.392-1.183-5.49-2.2-1.225-1.1-1.014-2.871-2.069-4.1-.972-1.267-2.957-2.957-4.562-3.21-.169-2.112.127-4.308-.042-6.377-.127-1.774-1.1-3.97-.549-5.913.634-2.154,2.45-2.069,3.928-3.252a13.821,13.821,0,0,0,2.956-4.265c.76-1.478,1.774-3.463.76-5.026-1.182-1.816-3.547-.422-5.11.127a7.8,7.8,0,0,1-5.7-.465c-2.154-.929-3.506-.464-5.744-.3-3.843.212-8.024-2.449-12.079-1.267-1.562.465-3.125,2.45-4.1,3.633-1.352,1.52-3.083,2.111-4.477,3.547-1.6,1.689-1.689,2.956-4.35,3.379a3.258,3.258,0,0,1-2.365-.169c-1.183-.549-1.394-1.1-2.788-1.1a8.131,8.131,0,0,0-2.365.718c-.718.169-2.7-.338-3.209.084-.761.676-.085,2.07-.761,2.872-.844,1.014-1.52.549-2.365.211-2.238-.8-2.829-.718-4.856.76-1.563,1.1-3.083,2.83-4.857,3.506-1.732.676-3.717.591-5.406,1.52-1.225.676-3,2.492-4.435,2.576-2.745.169-5.532-5.7-8.488-3.885-1.859,1.182-1.859,2.492-1.732,4.434a10.794,10.794,0,0,1,0,3.083c-.253,1.056-.887,1.1-1.478,1.816a7.091,7.091,0,0,0-1.6,5.111c0,.633.3,2.491-.169,2.914-.3.253-1.858-.423-2.365-.591-2.365-.761-2.365-2.366-3.843-3.886-1.225-1.267-3.632-1.1-5.195-1.52-1.858-.465-3.379-1.056-5.448-.592-1.943.465-3.125,2.07-4.519,3.506-1.351,1.394-2.449,2.492-4.392.887-1.225-1.014-1.563-3.379-3.463-3.548-.887-.042-1.352.676-2.365.253.126.043-.972-.8-.93-.8-.506-.422-.886-.127-1.267-.845-.422-.76.127-2.027.169-2.787.085-1.1,0-2.238,0-3.336,0-2.323.676-3.506,2.83-3.337,2.323.169,3.21-.971,5.406-1.563,1.943-.506,3.59-.337,5.11-2.111,1.352-1.563.549-3.59,2.07-4.857,1.435-1.225,3.463-.845,5.236-1.225,1.352-.253,2.915-2.027,3.928-3.252,1.183-1.478,1.605-3.083,3.21-4.265a14.532,14.532,0,0,0,3.5-3.506,44.737,44.737,0,0,1,7.095-7.855c1.394-1.183,2.83-2.112,4.139-3.083a6.959,6.959,0,0,0,1.859-1.647c.506-.8.464-1.943.886-2.745a11.655,11.655,0,0,1,4.139-3.843c1.563-1.056,3.083-2.915,4.857-3.633.929-.337,3.548-.929,4.435-.168,1.224.971-.338,2.534-.212,3.843,4.6,3.125,9.8-2.07,12.206-2.492,2.7-.465,7.982.422,10.389-.591,1.985-.76,10.263-4.393,11.994-5.364,1.774-1.014,2.872-.3,5.111-.3,3.674,0,6.5,1.352,9.249-1.52,1.351-1.394,1.562-3.294,3.632-3.674,3.083-.592,2.28,2.323,2.111,4.434-.126,1.774-.169,5.237,2.492,4.646,1.647-.338,2.154-4.1,4.055-3.59.76,1.183.971,2.45,2.576,2.83,1.605.295,3.674.338,4.814-.3a15.024,15.024,0,0,1,2.534-4.054c.887-1.056,1.859-.634,3.126-1.31,1.351-.675,3.294-2.28,2.576-4.645-.422-1.309-1.943-1.816-2.534-3.083-.634-1.225-1.521-3.168-1.352-4.392.212-1.479,1.859-3.083,2.619-4.393a35.342,35.342,0,0,1,2.492-4.392,34.475,34.475,0,0,0,2.914-3.632c2.069-3.294,5.068-6.166,6.8-9.629a25.486,25.486,0,0,0,1.605-5.575,10.583,10.583,0,0,0-.591-6.166c-.676-1.985-.845-3.97-1.478-5.913-.845-2.534-.423-2.914,1.224-4.983,1.31-1.605,2.028-2.914,4.224-3.041,1.647-.127,4.139-.338,4.434-2.492,1.014-.422,1.478-2.154,2.745-2.7a5.17,5.17,0,0,1,2.154-.169h1.774c2.112,1.014.465,5.744-.591,7.264-.972,1.436-2.027,3.464-3.8,3.633-1.056.084-1.6-.55-2.788.295a2.506,2.506,0,0,0-1.055,2.027c-.127,2.2,2.365,1.859,2.576,3.844.127,1.1-.718,1.942-.549,3.125a6.732,6.732,0,0,0,1.309,2.323c1.225,1.562,2.492,2.28,4.392,1.816,2.45-.634,3.21-.972,3.886-3.337a6.49,6.49,0,0,1,2.872-3.8c1.985-1.225,4.054-.422,6.123-1.056,3.464-1.182,6.589-3.885,9.545-6,1.478-1.056,2.788-1.985,4.223-3.209a14.923,14.923,0,0,0,2.45-2.154c.549-.8,1.309-3,1.732-3.844,1.562-3.209,4.35-5.363,5.532-8.826,1.225-3.463,1.689-5.744,3.632-8.785,1.858-2.956,3.717-1.943,6.462-4.1,3.041-2.408,4.308-9.841,4.857-13.431.169-1.1.084-2.238.253-3.336.127-.971.718-1.436,1.1-2.238.8-1.69.085-3.717,1.014-5.7,1.6-3.252,3.378-6.166,4.35-9.587.507-1.774.253-3.885.718-5.743a31.248,31.248,0,0,0,1.056-5.871,37.668,37.668,0,0,0,0-6.166c-.127-1.478.211-4.772-.592-6.124-.633-1.013-1.478-.844-1.731-2.111a12.52,12.52,0,0,1,0-3.083c.084-1.1.464-2.028,0-3.083-.592-1.521-.887-.93-1.014.549-.211,2.111.127,3.463-1.731,4.687a3.353,3.353,0,0,1-4.646-.886c-1.056-1.816.76-3.379,1.774-4.731a15.9,15.9,0,0,0,2.787-5.448c1.1-4.012,2.534-7.053-.591-10.769a30.156,30.156,0,0,1-3.506-4.519c-1.055-2.154.592-2.956,2.2-3.843,3.336-1.943,5.7-3.379,6.715-7.433a13.463,13.463,0,0,0,.3-5.955c-.422-2.365-.253-3.759,1.563-5.364a4.54,4.54,0,0,1,5.152-.591c1.563.8,1.394,3.378,1.563,5.152.169,2.323-.042,3.463,1.732,4.984,1.309,1.1,2.7,2.2,4.1.676,1.014-1.1,1.267-3.041,2.957-3.506,2.322-.591,3,2.407,4.772,1.985.718-1.351.169-3.294.3-4.814.127-1.563.634-3.548.254-5.153-.507-2.2-1.732-.464-3.083.591a6.8,6.8,0,0,1-3.886,1.732c-1.436.127-3.463-.127-4.223-1.478-.718-1.309,0-3,.591-4.224,1.436-2.956.761-5.87,4.308-7.137a3.238,3.238,0,0,0,.634.676c1.393.844,2.322,2.829,4.054,2.914a7.08,7.08,0,0,0,2.787-.8c.676-.337,1.225-1.562,2.154-1.267,1.267.465.887,4.35,1.014,5.406a15.365,15.365,0,0,0,1.225,5.744c.971,2.112.253,3.632.042,5.575a13.01,13.01,0,0,0,.253,3.378,16.138,16.138,0,0,0,.3,2.788c.549,1.436,2.576,2.745,3.5,3.928,1.056,1.393,2.492,2.491,3.379,3.885l2.323,2.576c.169,1.352,2.069,3,2.914,4.055,1.267,1.562,1.858,3.252,2.956,4.983,1.056,1.689,2.745,2.788,3.886,4.392a15.67,15.67,0,0,1,2.2,4.646c1.056,3.843,2.7,7.56,1.942,11.825-.337,1.985-1.309,3.844-1.478,6s.085,3.97-.844,5.955c-1.479,3.126-5.28,5.322-6.082,9.038a18.935,18.935,0,0,0,.718,11.572c.507,1.056,2.45,3.8,1.478,4.815-1.267,1.309-3.928-.929-5.363-.972-1.479-.042-3.21,1.6-4.351,2.408a20.9,20.9,0,0,0-2.069,1.773,7.53,7.53,0,0,0-1.351,2.281,8.157,8.157,0,0,0-1.267,5.321c.126,1.943,0,4.266.887,6.04.76,1.52,2.027,2.618,2.956,4.054a33.941,33.941,0,0,1,2.238,5.406c1.309,3.252,2.407,7.306,2.112,10.812a35.648,35.648,0,0,1-3.21,11.825,61.945,61.945,0,0,0-4.012,10.094,23.69,23.69,0,0,0,.3,12.036c.211.887,1.013,1.985,1.224,2.914a6.911,6.911,0,0,0,1.1,2.788,47.211,47.211,0,0,0,3.548,4.688c.887.929,3.843,2.2,3.336,3.632-.3.929-3.04,2.111-4.1,2.829a24.208,24.208,0,0,0-3.8,2.619c-1.1,1.182-.929,2.745-1.056,4.35-.253,3.336-.253,7.137-.591,10.516-.76.633-1.647.507-2.534,1.013-.634.338-1.014,1.056-1.605,1.563a26.878,26.878,0,0,0-4.646,4.646c-1.013,1.436-1.393,3.8-3.547,3.632-2.788-.211-1.816-3.168-2.323-5.11a51.85,51.85,0,0,1-1.056-5.575c-.211-1.267-1.056-4.519-.127-5.7.592-.76,1.394-.549,2.2-.887a5.343,5.343,0,0,0,1.943-1.942,20.322,20.322,0,0,0,1.985-5.195c-2.323-1.309-9.587.169-10.474,3.041a6.6,6.6,0,0,0,1.014,5.575c1.394,1.773,1.816,2.365,2.027,4.687.085,1.479-1.225,4.351-3.083,3.59-.971-.422-.718-1.605-1.014-2.28a2.673,2.673,0,0,0-2.322-1.563c-4.055-.549-8.32-.3-9.63,4.054-.675,2.366,1.267,5.871,2.154,7.983v-.423"/><path class="cls-1" d="M44.044,416.963a9.179,9.179,0,0,1-3.126-4.055c-.506-1.055-.886-4.1-1.942-4.772-1.563-.971-3.083,1.52-4.393,1.943-1.816.633-3.251-.929-5.025.422a24.932,24.932,0,0,0-3.337,3.337c-.8.886-1.267.929-1.478,2.153-.211,1.1.085,1.859-.464,2.915-1.225,2.322-2.957,1.647-4.984,1.309-2.7-.465-1.774,1.774-3.252,3.547-1.436,1.648-2.787,1.605-4.941,1.479-3.168-.169-1.816,1.351-2.619,3.674-.929,2.787-1.985,1.774-4.1,1.225C2.4,429.591.544,430.393.5,432.505c-.084,3.378,4.055,6.926,7.011,8.193a10.5,10.5,0,0,1,4.519,3.21c1.225,1.52,1.52,3.97-1.183,3.5-2.111-.422-2.534-1.985-3.336-3.632-.676-1.394-2.323-3.8-3.674-1.732-2.112,3.168,4.392,6.631,4.1,9.8-.126,1.648-1.182,4.351,1.774,2.83a15.578,15.578,0,0,0,4.055-3.379c.886-1.013,2.449-3.5,4.1-2.956,2.027.634.422,3.674,1.436,5.026,1.478,1.985,2.787.3,4.1-.887,1.056-.971,2.829-2.618,2.787-4.139-.084-2.449-2.618-2.365-4.392-2.069-2.45.422-3.463.844-3.632-2.07-.085-1.985-.549-3.759.295-5.575.676-1.393,2.619-3,4.266-2.576,1.563.423,2.534,2.872,3.379,4.055.8,1.182,2.322,2.829,2.787,4.181.253.887.085,1.858.3,2.787a14.642,14.642,0,0,1,.8,2.534c0,2.154-2.027,2.872-2.534,4.646,3.59.929,2.365,7.391.929,9.967-.8,1.478-2.407,2.238-3.5,3.5-1.183,1.309-2.027,3.168-3.083,4.561-1.436,1.859-2.365,2.45-2.365,4.857a8.154,8.154,0,0,0,1.731,5.237c1.225,1.478,2.746,1.774,3.506,3.548a5.768,5.768,0,0,1-1.014,6c-1.394,1.478-3.083,1.774-2.618,4.35.338,2.154,1.731,3,3.632,3.674a49.156,49.156,0,0,0,5.617,1.309c1.647.338,3.97.549,4.857-1.182,2.153-3.928-3.675-5.871-4.773-8.954-.718-1.985.042-3.167,1.732-4.645,1.013-.887,3.252-3.21,4.645-3.083.676.042,2.028.295,1.563,1.309-.507,1.1-2.281-.085-2.872.971-.253.549.634,2.154.718,2.619.211.929,0,2.111.3,3.04.633,1.859,3.083,2.112,3.083,4.646,0,2.112-1.816,3.041-2.788,4.688-2.787,4.772,5.7.8,7.222-.253a7.756,7.756,0,0,0,3.295-4.139c.549-1.774-.972-3.8.717-4.984,1.985-1.393,3.97.3,4.731,2.112,4.645,1.056,4.6-8.193,4.6-10.77,0-3.843-.887-8.488-.042-12.163.464-1.858,1.816-5.11,2.365-6.884.591-1.858.464-3.378.76-5.406.549-3.547,2.7-5.955,4.73-9a44.454,44.454,0,0,0,2.534-4.857c.929-1.858,1.478-3.463.76-5.406a35.805,35.805,0,0,0-2.618-4.857c-.929-1.689-1.225-3.041-3.083-3.632-1.6-.507-3.674-.76-4.815-2.112-1.478-1.689.507-3.547,1.436-4.814a3.661,3.661,0,0,0-.422-5.237c-1.647-1.436-3-1.352-4.73-.254-3.125,1.859-5.617,3.844-8.743.845Z"/><path class="cls-1" d="M82.434,416.456c-2.112.591-3.252,3.674-4.984,5.11-2.449,2.07-5.279,1.309-7.813,2.619,2.238,1.1,5.786-.127,8.151.549a3.478,3.478,0,0,1,2.365,1.774,14.555,14.555,0,0,1,.887,2.069c.169.338,1.1,1.478,1.183,1.731.084.507-1.056,1.817-1.352,2.619a17.553,17.553,0,0,0-.76,3.59,7.885,7.885,0,0,1-1.478,3.378c-.718,1.1-.929,2.45-1.647,3.464,2.407-2.281,3.758-6.673,7.264-3,.929.971,1.731,3.674,2.872,4.35,1.858,1.1,3.209-.887,4.645-1.689,1.478-.8,4.35.929,4.815-1.1.464-1.816-2.154-3.337-1.1-5.237.929-1.69,3.294-2.365,4.434-4.055a11.454,11.454,0,0,0,1.816-5.406c.169-2.449.169-3.083,2.239-4.223,1.393-.76,2.914-2.112,4.392-2.534.971-3.885,6.968-4.223,9.587-1.816,1.394,1.267,2.323,2.83,3.843,3.886,1.309.886,3.294,3.167,4.984,2.2,1.436-.845,1.773-3.928,2.2-5.28a17.563,17.563,0,0,1,2.618-4.561,13.836,13.836,0,0,1,3.632-4.223,46.953,46.953,0,0,0,4.308-2.83c1.056-.929,1.943-1.6,1.605-3.252a11.51,11.51,0,0,0-1.1-4.054c-.634-.971-1.943-1.563-2.45-2.7-.633-1.309-.211-2.745-.084-4.012-1.521-.127-2.956.084-4.35-.507-1.352-.591-2.45-1.478-3.8-1.943a10.112,10.112,0,0,0-3.886-.929c-.506.042-1.055.549-1.816.465a8.613,8.613,0,0,1-2.28-.8c-.507-1.731-3.337,1.056-4.266,1.774a48.469,48.469,0,0,1-4.814,2.914c-2.323,1.394-1.056,1.563-1.31,3.844-.211,2.069-2.154,3.294-3.885,4.054-1.816.8-3.674.422-5.448,1.014-1.943.633-1.563,2.745-3.632,1.435-2.914-1.816-3.632-7.686-6.926-3.209-.634.8-3.084,2.872-3.3,3.885-.126.634.169,1.436,0,2.07-.3,1.1-.464.718-1.309,1.478-.887.8-.76,1.52-1.225,2.7-.549,1.436-.549,2.7-1.858,3.8Z"/><path class="cls-1" d="M223.155,250.986a39.551,39.551,0,0,0-1.6,5.11,4.134,4.134,0,0,0-1.478.634c-.085,1.1-.591,1.943,0,3,.464.8,1.478,1.267,1.731,2.111.465,1.436-.633,6.335,2.239,4.6,1.52-.93,3.252-3.126,4.392-4.562,1.563-2.111.422-4.223-2.2-3.336-.211-2.407.8-3.97,1.52-6.166.634-1.985-2.407-4.35-3.336-2.323Z"/></svg>