<svg id="圖層_1" data-name="圖層 1" xmlns="http://www.w3.org/2000/svg" viewBox="0 0 1702.89 402.479"><defs><style>.cls-1{fill:#f7f5f2;}</style></defs><title>2018-07-14-精稿-電腦</title><path class="cls-1" d="M1585.115,351.458c.631,0,1.375-.218,1.878.037,34.853,17.68,72.419,27.808,109.458,39.412a14.464,14.464,0,0,1,6.439,4.387c-567.141,12.187-1134.166,5.688-1701.185,3.378Q.853,397.3,0,395.923c2.559-2.924,4.569-6.973,7.789-8.545,7.4-3.612,15.709-5.362,23.059-9.047,16.1-8.074,32.373-16.044,47.521-25.706,8.844-5.641,17.491-9.351,27.619-8.135,16.789,2.016,31.554-2.311,44.827-12.4,15.714-11.947,32.743-14.628,52.292-11.035,23.688,4.354,47.63,4.361,69.541-8.709a15.374,15.374,0,0,1,6.206-2.408c26.259-2.193,48.084-16.058,70.954-27,107.186-51.277,214.323-102.669,315.95-164.613C698.937,98.1,731.8,77.341,765.188,57.481c11.974-7.122,24.944-12.664,37.764-18.226,5.1-2.214,11.083-2.324,16.56-3.782,4.187-1.114,8.989-1.9,12.147-4.494,6.517-5.36,13.026-7.213,21.171-4.728,19.878,6.065,38.368-2.081,57.009-6.6,18.207-4.413,36.219-9.872,53.953-15.936C988.908-4.873,1009.9,1.94,1028.8,18.875c-6.481-3.222-13.183-6.071-19.395-9.746-11.917-7.049-24.064-8.7-37.493-4.665C947.262,11.87,922.576,19.3,897.569,25.32A145.233,145.233,0,0,1,858.041,29.4c-9.76-.405-18.757-2.747-26.563,5.318a11.139,11.139,0,0,1-6.906,2.87c-19.159.928-35.885,9.265-51.494,18.863C716.1,91.49,659.63,127.367,603.1,163.137A83.217,83.217,0,0,0,587.064,176.6c-1.959,2.094-1.566,6.39-2.242,9.684,3.1-1.083,6.588-1.6,9.214-3.391,3.349-2.277,5.608-6.218,9.027-8.322q22.37-13.763,45.211-26.748c4.212-2.386,9.2-3.393,13.839-5.033q.714,1.347,1.43,2.694c-5.605,3.814-11.162,7.7-16.825,11.429-21.76,14.328-43.622,28.5-65.255,43.018-2.975,2-4.874,5.6-7.27,8.455l2.254,1.888c30.036-17.594,56.159-41.915,90.105-53.021a54.148,54.148,0,0,1-14.661,12.719c-13.752,8.654-27.722,16.965-41.4,25.726-2.006,1.285-2.914,4.283-4.33,6.488,2.818.531,6.062,2.213,8.369,1.361a64.8,64.8,0,0,0,15.155-7.952c13.723-9.833,27.072-20.187,40.718-30.131,2.452-1.787,5.621-2.591,8.459-3.849-7.95,15.757-24.987,22.645-32.144,38.375,4.813-1.579,9.359-3.483,12.675-6.667,23.693-22.747,49.127-43.644,71.795-67.48.5-.52,1.524-.531,3.573-1.183l-10.434,24.763c-4.031,1.439-9.534,1.9-12.747,4.857-7.173,6.6-13.035,14.593-19.744,21.725-8.061,8.569-17.07,16.322-24.5,25.389-5.911,7.22-10.3,15.747-14.861,23.976-1.652,2.983-1.827,6.784-2.675,10.212-1.957,2.331-6.3,3.236-10.674,3.493-6.824.4-9.5,3.276-6.363,9.782,2.578,5.354.225,8.389-4.3,10.767-2.049,1.077-4.027,2.29-6.037,3.441,2.031,1.307,3.6,1.418,4.948.931,21.083-7.613,35.769-23.816,51.313-38.763,1.253-1.2.587-5.074-.067-7.464-1.924-7.03,4-18.1,10.438-17,9.971,1.7,13.713-4.486,17.892-10.944,4.322-6.678,8-13.876,13.079-19.91,1.976-2.348,8.711-4.153,10.345-2.762,9.761,8.314,11.539,8.028,14.8-4.712,2.013-7.868,8.837-11.584,16.962-9.228-3.264,7.724-11.206,13.614-10.115,23.754,8.445.067,11.2-4.523,12.884-10.983,2.527-9.687,7.807-16.534,19.036-16.86,1.92-.056,5.317-2.293,5.419-3.709.976-13.651,9.586-23.289,16.692-33.809,1.293-1.914.927-4.949,1.327-7.467-3.142.445-6.57.271-9.334,1.54-2.06.946-3.262,3.759-6.115,7.328,1.614-13.244,17.965-27.9,30.634-29.2-1.862,15.659-2.3,31.576-16.436,43.349l11.656,4.233c-4.255,4.6-7.881,8.419-11.387,12.34-12.6,14.1-21.611,31.389-38.923,41.367-4.671,2.692-7.038,9.382-10.462,14.238l2.788,2.534c3.678-2.118,7.821-3.706,10.95-6.449,10.771-9.443,21.1-19.389,31.795-28.92,3.064-2.731,6.8-4.706,10.23-7.028l1.757,2.565c-7.94,12.911-20.114,21.463-31.659,30.928-9.715,7.964-18.367,17.38-26.652,26.883-5.821,6.677-9.986,14.773-15.393,21.85a30.831,30.831,0,0,1-9.258,7.957c-7.09,3.956-14.561,7.232-21.9,10.735-2.354,1.123-4.788,2.078-8.02,3.469-1.787-12.981,13.324-10.885,15.235-21.833-3.588,0-6.8-.741-9.51.122-15.08,4.811-25.448,13.779-27.2,30.774-1.036,10.051-8.789,19.631-15.52,21.461.6-3.535,1.237-7.294,1.875-11.053-4.56-.554-9.53-2.541-13.6-1.375-9.732,2.791-18.993,7.19-28.538,10.682-3.992,1.461-8.223,2.268-12.345,3.373q-.452-1.487-.9-2.974c5.091-3.106,10.206-6.174,15.268-9.326,20.518-12.78,41.1-25.462,61.464-38.484,4.2-2.684,9.41-5.695,7-13.285-32.669,17.493-56.857,48.929-95.078,55.085l-2.374-2.182,13.2-23.445c-12.6-1.384-25.513,4.463-36.307-5.569,13.03-8.886,29.582,2.661,43.463-11.172-9.556-2.861-17.123-6.786-24.77-6.949s-15.39,3.434-23.09,5.383l-2.156-2.748c13.451-9.077,31.162-14.323,33.92-34.122-2.549,1.243-4.5,2.126-6.393,3.13-25.791,13.7-43.036,36.334-60.37,58.682-2.135,2.753-.417,8.495-.485,12.852,5.435-.425,14.089,1.077,15.708-1.629,5.141-8.6,11.4-7.776,19.045-6.286,2.677.522,5.656-.7,8.511-.842,3.564-.171,7.142-.041,10.714-.041q.375,1.374.751,2.748l-27.844,20.308.492,2.133h15.206l1.007,3.194q-6.322,3.472-12.643,6.945c-2.672,1.472-5.56,2.662-7.962,4.49-6.131,4.669-11.969,9.719-18.084,14.409-2.006,1.538-4.5,2.438-6.772,3.63q.438,1.39.877,2.782a46.04,46.04,0,0,0,7.007-.968q19.469-5.722,38.849-11.736a105.273,105.273,0,0,0,12.4-4.62c13.9-6.332,27.615-13.081,41.634-19.131,3.51-1.514,7.894-1,11.876-1.423q.426,1.385.853,2.77a55.756,55.756,0,0,0-4.657,5.553c-1.734,2.674-3.1,5.59-4.617,8.4,3.245.685,6.522,2.053,9.726,1.9,5.353-.254,11.237-.329,15.816-2.631,4.32-2.171,7.245-7.117,11.053-11.127,3.344,10.786,8.507,12.8,17.511,7.369,2.168-1.306,3.86-3.545,6.129-4.512,5.4-2.3,11.628-6.684,16.426-5.559,9.783,2.293,13.926-3.106,18.719-9.022,2.006-2.477,4.131-4.861,6.06-7.4,3.7-4.856,8.278-6.14,13.281-2.569,20.873,14.9,43.855,12.308,66.107,6.029,7.626-2.152,13.168-11.762,19.551-18.078.439-.434.27-2.028-.175-2.726-6.811-10.67-1.2-20.072,2.55-29.879,1.2-3.146.4-7.057.515-10.619a93.127,93.127,0,0,0-9.916,1.575,12.959,12.959,0,0,0-4.85,2.992c-10.385,9.078-22.944,10.367-35.9,9.928-2.28-.077-5.641-.99-6.454-2.571-.826-1.606.159-5.176,1.6-6.75,11.315-12.4,22.9-24.546,34.464-36.715,4.369-4.6,11.047-8.291,12.956-13.706,6.906-19.581,22.675-32.083,35.266-47.079,3.373-4.017,8.588-6.488,12.8-9.557,4.895,5.835-2.492,14.985,8.549,16.77.817-3.62,1.2-7.095,2.422-10.241,1.283-3.3,2.715-7.432,5.369-8.951,1.54-.881,5.746,2.465,8.514,4.273,3.388,2.213,6.527,4.808,9.773,7.237l2.211-2.651a73.807,73.807,0,0,1-4.861-7.758c-3.387-7.167-6.881-14.331-9.481-21.793-.774-2.224,1.27-5.43,2.024-8.186,2.454,1.058,6.171,1.439,7.16,3.283,6.72,12.526,14.742,24.742,10.648,40.349-1.41,5.376-1.1,11.2-1.451,15.394-3.236,1.423-6.844,1.968-8.459,4.056-1.252,1.617-1.064,6.655.289,7.606,8.193,5.762,2.853,11.156,0,16.428-1.454,2.686-3.946,4.811-5.832,7.028.717,1.539,1.178,2.363,1.5,3.239,1.07,2.961,2.9,5.968,2.8,8.9-.056,1.607-4.053,4.752-5.162,4.324-2.934-1.133-6.367-3.322-7.616-6.013-3.05-6.573-4.979-13.668-7.752-21.688-.653,2.449-1.69,4.09-1.306,5.264,2.525,7.705,4.786,15.58,8.234,22.878,4.243,8.978,3.625,11.525-5.934,14.471-4.237,1.306-8.869,1.764-12.738,3.746-10.384,5.319-11.31,4.927-11.321-6.805,0-1.853-.258-3.706-.419-5.864-9.11-.906-11.354,6.308-12.665,11.795-2.355,9.859-2.707,20.186-4.108,30.288-.41,2.958-1.92,5.778-2.215,8.733-.261,2.6-.531,6.481.951,7.744,4.15,3.534,9.2,6,13.415,8.6,12.036-21.811,30.662-21.719,51.381-17.473-1.034-4.481-2.355-7.513-2.224-10.482.106-2.411,1.749-6.649,3.062-6.79,6.167-.661,12.8-1.307,18.517.469,2.1.652,1.757,8.12,3.157,12.266,2.01,5.952,3.771,12.308,7.35,17.251,1.387,1.915,7.445.446,11.376.519-1.291-3.179-1.767-7.209-4.029-9.377-6.465-6.2-5.578-10.728,1.748-14.986,2.2-1.277,4.036-3.361,6.356-4.2,8.184-2.956,10.046-9.426,7.047-16.093-5.389-11.977,4.492-26.28-6.3-37.114-.27-.271-.071-1.31.226-1.8,4.089-6.708-.713-10.547-4.629-14.746-4.559-4.888-9.445-9.552-13.409-14.893-4.156-5.6-6.572-12.009-2.754-21.157,3.6,4.538,6.881,7.558,8.8,11.279,14.1,27.295,35.237,47.707,61.242,63.45,11.174,6.764,22.421,13.407,33.581,20.193a38.777,38.777,0,0,1,4.536,3.771l-1.757,2.761c-26.99-8.066-46.825-28.9-72.428-43.459,1.648,6.521,1.854,12.335,4.553,16.554,2.5,3.91,7.666,6.115,12.122,9.414-1.373.667-2.852,1.848-4.474,2.1-10.062,1.546-6.462,10.11-8.319,15.858,4.4,1.247,9.993,4.817,12.983,3.292,8.025-4.093,14.727-1.326,21.947.876,2.413.736,5.068,1.8,7.417,1.44,14.693-2.258,26.483,4.7,38.514,11.346,12.44,6.874,24.8,13.993,37.684,19.946q77.592,35.854,155.516,70.988c7.335,3.328,13.116,7.1,8.372,18.345,12.219,1.4,23.115,3.312,34.04,3.49,3.333.054,6.743-4.671,10.117-7.208-2.753-2.615-5.064-6.345-8.339-7.645-12.109-4.807-24.488-8.956-36.852-13.095-63.4-21.227-121.413-52.577-174.669-92.874-2.744-2.077-5.43-4.23-8.142-6.348l1.626-2.28,65.889,36.393,1.991-2.95c-2.192-2.553-4-5.637-6.649-7.556-6.929-5.013-14.266-9.457-21.362-14.245-4.581-3.09-10.495-5.483-8.054-13.6,13.746-1.13,26.859.521,38.1,8.957,14.242,10.684,28,22.019,42.045,32.963,2.355,1.833,5.148,3.1,7.738,4.634l2.508-1.488c-1.061-3.955-1.787-8.039-3.252-11.838-3.428-8.893-7.886-17.442-10.653-26.519-2.554-8.38,1.129-11.381,9.351-8.576a68.829,68.829,0,0,1,11.33,5.031c35.513,19.873,70.936,39.907,106.478,59.726,5.114,2.851,10.727,4.805,16.11,7.175l1.152-2.366c-6.777-3.776-13.78-7.2-20.292-11.386q-48.2-30.984-96.1-62.422c-2.667-1.752-4.222-5.2-7.763-9.741,5.491,0,8.047.389,10.423-.1,2.977-.611,5.806-1.94,8.7-2.96-1.489-3.051-2.241-6.959-4.605-8.992a266.817,266.817,0,0,0-22.044-16.8c-10.459-7.254-20.83-14.776-31.953-20.881-7.476-4.1-16.12-7.129-27.309-1.377l38.125,30.506c-26.971-12.527-52.7-26.42-67.581-53.8a63.936,63.936,0,0,0-10.171-13.776c-4.928-5.086-14.726-5.379-16.706-.463-2.028,5.037-5.055,7.322-9.094,4.932-3.129-1.851-6.46-6.282-6.607-9.7-.413-9.649-5.586-12.92-14.01-13.149a98.736,98.736,0,0,0-15.264.425c-8.3,1.073-14.309-2.291-18.8-8.774-13.867-20.014-31.754-35.481-52.863-47.41-3.038-1.717-6.236-3.488-8.59-5.965-1.683-1.771-3.551-6-2.746-6.961,1.754-2.089,5.635-4.375,7.8-3.731,4.69,1.4,9.651,3.774,13.087,7.178,17.829,17.663,35.156,35.833,52.823,53.661,2.343,2.364,7.508,5.931,8.2,5.323,9.3-8.128,17.721-2.246,26.5.655,2.019.668,4.627-.444,8.148-.885-10.05-15.607-27.337-18.866-39.634-28.856-12.127-9.851-23.513-20.615-35.224-30.979,6.018-.05,13.35.432,16.788,4.339,16.263,18.489,37.222,29.9,58.815,39.931a83.018,83.018,0,0,1,40.794,39.776c6.532,13.266,16.5,21.428,30.4,23.538,19.084,2.9,34.153,12.869,49.539,23.365,28.85,19.679,53.522,45.4,86.5,59.194,9.229,3.859,17.4,10.23,26.133,15.313a40.89,40.89,0,0,0,6.194,2.4l2.259-2.259L1303.138,232.5c10.126,2.514,19.005,3.336,26.666,6.831q131.224,59.864,262.146,120.4a35.42,35.42,0,0,0,5.6,1.554l.482-1.287ZM491.192,290.5l2.535,2.66c-2.286,2.866-4.96,5.511-6.749,8.659-1.81,3.185-2.742,6.867-4.059,10.332q1.82,1.006,3.638,2.014l40.564-37.939q-1.215-1.782-2.432-3.563c-23.032,2.956-43.794,12.273-66.3,23.82C472.608,302.215,481.574,294.7,491.192,290.5Zm28.651-30.917c-32.4,5.438-62.395,15.766-85.362,40.493,18.106-7.33,35.671-15.787,53.176-24.365C498.432,270.434,509.117,264.968,519.843,259.586Zm-161.118,47.7c13.486,4.479,50.041-21.793,47.882-33.747C388.258,281.136,370.659,289.009,358.725,307.291Zm210.48-109.32c-13.824-3.343-52.555,16-58.424,28.221C532.385,221.487,551.26,212.92,569.205,197.971ZM361.562,335.539c8.855,3.562,14.1,1.072,18.963-4.255a42.154,42.154,0,0,1,13.293-10.139c9.485-4.237,11.786-8.373,7.373-22.065Z"/><path class="cls-1" d="M1585.5,351.824c-7.3-2.941-14.823-5.427-21.864-8.893-71.035-34.966-141.166-71.923-213.29-104.465-41.159-18.572-73.153-49.177-110.561-72.372-15.127-9.379-30.344-18.622-45.251-28.341-9.009-5.874-17.418-12.661-26.247-18.822-9.584-6.688-19.522-12.879-28.981-19.735-11.617-8.42-22.9-17.3-34.323-25.989,15.731,8.881,31.527,17.653,47.156,26.711a161.219,161.219,0,0,1,14.064,9.765c12.512,9.163,24.764,18.694,37.49,27.547,20.12,14,41.476,26.379,60.649,41.544,44.637,35.306,94.862,60.425,145.812,84.792,57.453,27.476,114.165,56.5,171.171,84.913C1582.88,349.256,1584.111,350.694,1585.5,351.824Z"/><path class="cls-1" d="M1091.829,63.5l-48.2-35.216C1062.6,36.056,1079.293,46.93,1091.829,63.5Z"/><path class="cls-1" d="M949.779,219.906c-17.847-7.122-26.416-24.971-21.735-41.574,1.172-4.158-.215-9.221-1.136-13.723-.654-3.193-2.5-6.142-3.805-9.175,6.669,5.391,13.367,10.136,19.194,15.781,3.244,3.143,6.816,7.643,7.145,11.778C950.4,194.945,949.779,207.022,949.779,219.906Z"/></svg>