<svg xmlns="http://www.w3.org/2000/svg" xmlns:xlink="http://www.w3.org/1999/xlink" viewBox="0 0 455.952 380.418">
  <defs>
    <style>
      .cls-1 {
        opacity: 0.11;
      }

      .cls-10, .cls-11, .cls-12, .cls-13, .cls-14, .cls-15, .cls-16, .cls-17, .cls-18, .cls-19, .cls-2, .cls-20, .cls-21, .cls-22, .cls-23, .cls-24, .cls-25, .cls-3, .cls-4, .cls-5, .cls-6, .cls-7, .cls-8, .cls-9 {
        fill-rule: evenodd;
      }

      .cls-2 {
        fill: url(#linear-gradient);
      }

      .cls-3 {
        fill: url(#linear-gradient-2);
      }

      .cls-4 {
        fill: url(#linear-gradient-3);
      }

      .cls-5 {
        fill: url(#linear-gradient-4);
      }

      .cls-6 {
        fill: url(#linear-gradient-5);
      }

      .cls-7 {
        fill: url(#linear-gradient-6);
      }

      .cls-8 {
        fill: url(#linear-gradient-7);
      }

      .cls-9 {
        fill: url(#linear-gradient-8);
      }

      .cls-10 {
        fill: url(#linear-gradient-9);
      }

      .cls-11 {
        fill: url(#linear-gradient-10);
      }

      .cls-12 {
        fill: url(#linear-gradient-11);
      }

      .cls-13 {
        fill: url(#linear-gradient-12);
      }

      .cls-14 {
        fill: url(#linear-gradient-13);
      }

      .cls-15 {
        fill: url(#linear-gradient-14);
      }

      .cls-16 {
        fill: url(#linear-gradient-15);
      }

      .cls-17 {
        fill: url(#linear-gradient-16);
      }

      .cls-18 {
        fill: url(#linear-gradient-17);
      }

      .cls-19 {
        fill: url(#linear-gradient-18);
      }

      .cls-20 {
        fill: url(#linear-gradient-19);
      }

      .cls-21 {
        fill: url(#linear-gradient-20);
      }

      .cls-23 {
        fill: url(#linear-gradient-21);
      }

      .cls-24 {
        fill: #ea5504;
      }

      .cls-25 {
        fill: url(#linear-gradient-22);
      }
    </style>
    <linearGradient id="linear-gradient" x1="54.535" y1="355.251" x2="428.054" y2="355.251" gradientUnits="userSpaceOnUse">
      <stop offset="0.503" stop-color="#fffcdb"/>
      <stop offset="1" stop-color="#c8b997"/>
    </linearGradient>
    <linearGradient id="linear-gradient-2" x1="49.356" y1="340.218" x2="419.836" y2="340.218" gradientUnits="userSpaceOnUse">
      <stop offset="0" stop-color="#c8b997"/>
      <stop offset="0.497" stop-color="#fffcdb"/>
    </linearGradient>
    <linearGradient id="linear-gradient-3" x1="6.8" y1="156.85" x2="427.673" y2="156.85" gradientUnits="userSpaceOnUse">
      <stop offset="0.166" stop-color="#efe4b7"/>
      <stop offset="0.724" stop-color="#fff"/>
    </linearGradient>
    <linearGradient id="linear-gradient-4" x1="5.045" y1="219.782" x2="422.58" y2="219.782" xlink:href="#linear-gradient"/>
    <linearGradient id="linear-gradient-5" x1="212.077" y1="231.648" x2="212.077" y2="80.912" gradientUnits="userSpaceOnUse">
      <stop offset="0.448" stop-color="#d28431"/>
      <stop offset="1" stop-color="#eac194"/>
    </linearGradient>
    <linearGradient id="linear-gradient-6" x1="58.958" y1="151.68" x2="215.964" y2="151.68" gradientUnits="userSpaceOnUse">
      <stop offset="0" stop-color="#ffe9a9"/>
      <stop offset="0.687" stop-color="#ecc656"/>
    </linearGradient>
    <linearGradient id="linear-gradient-7" x1="103.539" y1="120.944" x2="244.361" y2="120.944" gradientUnits="userSpaceOnUse">
      <stop offset="0" stop-color="#ffe9a9"/>
      <stop offset="0.834" stop-color="#f6d774"/>
    </linearGradient>
    <linearGradient id="linear-gradient-8" x1="141.512" y1="188.732" x2="299.993" y2="188.732" xlink:href="#linear-gradient-7"/>
    <linearGradient id="linear-gradient-9" x1="74.451" y1="183.493" x2="200.118" y2="183.493" xlink:href="#linear-gradient-7"/>
    <linearGradient id="linear-gradient-10" x1="249.263" y1="106.398" x2="312.283" y2="106.398" gradientUnits="userSpaceOnUse">
      <stop offset="0.012" stop-color="#a9d06b"/>
      <stop offset="1" stop-color="#d7e8b9"/>
    </linearGradient>
    <linearGradient id="linear-gradient-11" x1="210.644" y1="123.769" x2="248.235" y2="123.769" xlink:href="#linear-gradient-10"/>
    <linearGradient id="linear-gradient-12" x1="256.785" y1="94.861" x2="285.179" y2="94.861" xlink:href="#linear-gradient-10"/>
    <linearGradient id="linear-gradient-13" x1="233.621" y1="99.375" x2="256.617" y2="99.375" xlink:href="#linear-gradient-10"/>
    <linearGradient id="linear-gradient-14" x1="209.264" y1="94.706" x2="233.654" y2="94.706" xlink:href="#linear-gradient-10"/>
    <linearGradient id="linear-gradient-15" x1="255.939" y1="130.052" x2="279.742" y2="130.052" xlink:href="#linear-gradient-10"/>
    <linearGradient id="linear-gradient-16" x1="238.777" y1="98.427" x2="252.833" y2="98.427" gradientUnits="userSpaceOnUse">
      <stop offset="0.012" stop-color="#8dc556"/>
      <stop offset="1" stop-color="#c0dd98"/>
    </linearGradient>
    <linearGradient id="linear-gradient-17" x1="258.541" y1="98.523" x2="272.596" y2="98.523" xlink:href="#linear-gradient-16"/>
    <linearGradient id="linear-gradient-18" x1="282.872" y1="101.15" x2="296.928" y2="101.15" xlink:href="#linear-gradient-16"/>
    <linearGradient id="linear-gradient-19" x1="222.441" y1="119.269" x2="236.497" y2="119.269" xlink:href="#linear-gradient-16"/>
    <linearGradient id="linear-gradient-20" x1="244.997" y1="158.767" x2="382.155" y2="158.767" gradientUnits="userSpaceOnUse">
      <stop offset="0.012" stop-color="#f9c385"/>
      <stop offset="1" stop-color="#d7a974"/>
    </linearGradient>
    <linearGradient id="linear-gradient-21" x1="273.711" y1="146.571" x2="371.804" y2="146.571" gradientUnits="userSpaceOnUse">
      <stop offset="0" stop-color="#fcd7a1"/>
      <stop offset="1" stop-color="#fff"/>
    </linearGradient>
    <linearGradient id="linear-gradient-22" x1="245.422" y1="31.937" x2="284.319" y2="31.937" gradientUnits="userSpaceOnUse">
      <stop offset="0.374" stop-color="#ea5504"/>
      <stop offset="1" stop-color="#fff" stop-opacity="0"/>
    </linearGradient>
  </defs>
  <title>資產 1</title>
  <g id="圖層_2" data-name="圖層 2">
    <g id="レイヤー_1" data-name="レイヤー 1">
      <g class="cls-1">
        <path class="cls-2" d="M54.809,366.4S52.736,377.8,59.994,377.8s101.088-12.44,149.3-14,149.3-6.738,171.591-7.776,47.173-13.476,47.173-13.476L415.1,332.7s-91.758,8.815-145.671,8.815-103.675,5.183-131.67,7.777S54.809,366.4,54.809,366.4Z"/>
        <path class="cls-3" d="M50.662,351.365s78.8-21.256,165.884-21.256,195.437-14,195.437-14,10.655,6.515,7.142,10S405.245,339.96,362.734,341s-194.395,6.74-224.98,8.3S62.586,362.77,62.586,362.77l-7.256,1.554S46,362.251,50.662,351.365Z"/>
        <path class="cls-4" d="M11.263,158.874C6.426,137.447-5.321,89.062,49.973,51.739S171.623-.795,261.475,8.882,392.8,57.958,409.39,71.781s19.356,47.006,17.973,73.269-39.4,71.183-55.986,81.552-57.372,46.31-82.254,51.84-15.9,17.279-24.194,20.735-33.175,11.062-73.261,7.6-60.133-21.425-62.21-26.956-6.909-11.751-6.909-11.751S62.414,238.353,39.6,216.233,26.471,187.9,21.633,178.223,11.263,158.874,11.263,158.874Z"/>
        <path class="cls-5" d="M14.374,152.826S68.807,232.651,205.66,233.17,421.833,129.5,421.833,129.5s9.849,33.176-41.991,82.935-98.5,67.91-101.608,75.167-18.66,16.071-40.433,16.587-45.615,12.961-74.126,0-34.734-20.735-35.253-27.992-3.109-8.812-20.217-16.071-58.062-33.177-77.761-52.356S5.045,140.9,5.045,140.9Z"/>
        <path class="cls-6" d="M30.965,178.741s-7.259-31.1,23.844-52.873,91.758-59.1,209.949-39.4,132.711,54.433,128.562,70.5-109.9,70.493-142.56,71.013-41.991,8.3-96.418-.52S40.814,198.436,30.965,178.741Z"/>
        <path class="cls-7" d="M58.958,184.957s.046-.542.158-1.526c.814-7.064,5.049-36.786,20.058-51.341,17.108-16.589,27.474-18.145,52.878-13.478s8.294,1.554,37.325,18.662,44.057,21.772,46.132,21.772S212.4,160.6,203.59,163.2s-10.367-2.073-24.881-2.593-55.471-18.143-74.651-7.776-29.549,32.131-36.806,34.207"/>
        <path class="cls-8" d="M103.539,111.354s8.814-7.256,16.591-8.294,7.257-11.406,16.588-13.479a52.076,52.076,0,0,1,18.143-.519s6.739-4.146,11.405-4.146,16.587,3.11,27.475,15.55,15.549,25.4,18.139,26.958,21.774,10.368,29.03,12.961-.518,4.146,2.594,8.292-2.594,7.261-11.407,7.261-18.144,1.035-30.062,1.035-45.1-11.4-52.878-18.665S121.685,110.835,103.539,111.354Z"/>
        <path class="cls-9" d="M141.9,215.544s6.222-27.477,32.141-38.874,50.8-21.77,68.942-21.77,38.881,14,40.953,25.4,19.184,18.14,15.552,21.769-21.255,3.628-22.81,6.739-5.183,6.74-7.775,5.184.52-.52-4.664,2.073-3.631,1.037-10.37,3.63-6.738.519-13.478-3.63-.52-2.073-28.512-6.22-40.431-.518-44.06,4.147,0,9.849-8.81,8.3S139.308,222.8,141.9,215.544Z"/>
        <path class="cls-10" d="M74.509,200.509s0-10.369,3.11-17.1-10.885-7.772,12.441-18.139,49.7-16.887,72.578-9.847c13.477,4.145,30.065,9.847,35.768,9.33s-4.665,5.184-4.665,5.184-32.659,17.616-37.325,22.282,0,6.221-1.555,10.369-2.592,7.777-19.181,7.777a141.581,141.581,0,0,0-32.141,4.146S72.954,208.286,74.509,200.509Z"/>
        <path class="cls-11" d="M299.489,88.544c7.03,4.218,14.516,0,12.442,8.293s-5.7,11.925-9.331,12.444,1.555,2.593-4.146,6.738-4.149,11.923-11.4,7.257,2.589-4.664-15.036-1.554-17.625,4.146-21.254,2.072-.518-17.105,7.777-16.069,16.069-2.593,17.626-1.036,3.11-12.96,10.887-15.551S296.9,86.988,299.489,88.544Z"/>
        <path class="cls-12" d="M213.953,124.834c5.481-2.991-6.738-7.776,5.184-11.926s21.773-9.848,25.4,1.037,7.258,13.479-3.11,17.107-17.624,13.479-24.364,6.222S208.252,127.942,213.953,124.834Z"/>
        <path class="cls-13" d="M260.092,97.356c.584-4.657-10.367-7.256,4.666-10.887s19.179-2.073,19.7,4.669,3.111,14.514-6.222,13.994S259.574,101.5,260.092,97.356Z"/>
        <path class="cls-14" d="M233.654,95.283c4.666-5.183-2.075-6.221,8.812-7.257s15.032,2.074,14,9.849,3.11,11.921-5.7,11.921-11.4,3.112-14.516-1.034S233.654,95.283,233.654,95.283Z"/>
        <path class="cls-15" d="M209.29,100.466c1.181-8.273-1.556-14.513,6.219-15.55s18.145,2.072,18.145,6.222,0,11.4-8.814,12.96S208.769,104.1,209.29,100.466Z"/>
        <path class="cls-16" d="M256.981,129.5c3.32-6.64,1.556-8.814,10.368-8.3s16.07,2.59,10.369,8.3-6.741,10.367-14.516,9.329S254.908,133.644,256.981,129.5Z"/>
        <path class="cls-17" d="M239.872,104.1c-2.545-9.346-.517-10.888,4.667-12.444s8.294-2.592,8.294,4.668S241.429,109.8,239.872,104.1Z"/>
        <path class="cls-18" d="M259.636,104.191c-2.545-9.344-.516-10.887,4.668-12.441s8.292-2.592,8.292,4.666S261.194,109.894,259.636,104.191Z"/>
        <path class="cls-19" d="M283.968,106.82c-2.546-9.344-.519-10.885,4.666-12.443s8.294-2.592,8.294,4.667S285.523,112.521,283.968,106.82Z"/>
        <path class="cls-20" d="M223.537,124.937c-2.547-9.343-.52-10.888,4.666-12.441s8.294-2.591,8.294,4.665S225.09,130.64,223.537,124.937Z"/>
        <path class="cls-21" d="M254.389,147.124c12.8-11.814,35.771-22.81,46.138-27.994s35.25-9.334,51.322-6.222,11.405,9.849,15.551,15.553,19.182,21.773,13.481,30.068-31.107,40.945-50.288,42.5-32.66,6.222-53.393,4.148-33.18-7.775-32.143-21.252S247.648,153.345,254.389,147.124Z"/>
        <g>
          <path class="cls-22" d="M300.128,111.833c1.245-5.24-4.862-6.551-8.368-8.807,4.88-2.31,10.576-2.695,11.982,2.726,3.183-2.153,5.869-4.963,4.3-8.2-1.4-2.886-11.343-1.136-7.662-7.4,3.561.727,5.565-1.943,8.3-1.748,9.862.7,11.045,24.026-3.433,20.644C304.278,110.628,302.9,112.875,300.128,111.833Z"/>
          <path class="cls-22" d="M118.212,123.618c-11.039,6.884-21.08,11.674-28.562,20.909-2.9,3.576-4.82,8.824-7.078,13.142-2.006,3.838-4.782,9.809-10.7,9.155C79.787,148.609,93.812,131.119,118.212,123.618Z"/>
          <path class="cls-22" d="M264.739,104.074a6.517,6.517,0,0,1,4.381,2.362c-.968,5.9,2.874,8.687,8.64,7.255-1.2-2.385-.006-5.812,2.33-7.9,9.71-5.062,15.516,12.326,5.567,10.231-.166-2.016,1.159-2.933.171-5.561-.587-1.189-2.212-.951-3.248-1.526-1.6.563-1.224,2.6-.81,4.653-7.276,3.814-11.095,10.177-21.943,11.355-4.986-.825-7.878-13.036-2.863-15.673.074,3.16,1.28,9.641,3.747,11.517,3.149.332,5.345-.851,8.292-1.755.533-1.792-2.845-2.663-3.693-4.475A34,34,0,0,1,264.739,104.074Z"/>
          <path class="cls-22" d="M8.164,174.909c16.332,18.958,35.724,38.813,56.283,52.918,20.994,14.4,45.193,22.781,68.257,35.522,2.2-.284,2.821-2,4.85-1.23,8.912,2.908,8.515,12.808,14.5,19.455,6.318,7.011,28.7,9.613,41.176,9.4,17.009-.284,37.466-2.733,51.74-7.284a68.4,68.4,0,0,0,21.8-12.336c.331,5.538-5.328,9.517-9.051,13.434-3.844,4.05-8.432,7.92-11.8,11.845-5.193,1.7-9.358,4.171-13.608,6.576,19.888-.114,44.25-5,57.258-14.153-2.654,6.485-11.166,8.141-18.01,10.761a207.518,207.518,0,0,1-39.613,11c-7.441,1.266-14.437.851-21.454,1.218-13.928.722-27.155,3.9-40.6,1.079-6.835-1.432-13.278-5.3-19.911-8.578-6.608-3.263-13.428-6.385-18.239-10.84-5.271-4.885-11.74-13.739-7.761-21.48-21.6-8.41-44.986-18.034-65.774-32.376C43.382,229.613,31.637,216.57,20.041,200.29,14.5,192.515,8.378,186.2,8.164,174.909Z"/>
          <path class="cls-22" d="M277.836,160.989c.489-.072.981-.153,1.473-.223,4,13.633,17.031,17.869,32.76,13.689C300.711,186.222,272.725,180.557,277.836,160.989Z"/>
          <path class="cls-22" d="M254.8,168.483c-1.913,1.966-3.029.39-4.655-.812a72.4,72.4,0,0,0-10.4,1.064C243.264,166.121,252.4,165.685,254.8,168.483Z"/>
          <path class="cls-22" d="M150.523,227.958c29.516,1.336,63.666,2.651,96.041-3.893-9.674-9.856-40.4-15.73-62.04-14.317-7.664.5-18.034,6.334-14.49,10.74-3.972.855-4.731,4.089-7.694,5.687-2.672-.111-3.612-2.773-6.574-3.54-8.016-2.086-20.342,1.344-23.9-4.956,6.384-2.1,13.781.418,17.153-3.087-6.111-2.191-15.136-.436-22.742-.608-2.62.621.248,2.73-1.94,3.822-34.09,4.664-56.315-3.6-77.549-17.015C27.235,188.44,6.5,167.275,1.284,139.208c-4.115-22.115,2.3-37.931,10.234-52.373,22.363-40.7,74.936-67.455,132.915-79.9A273.64,273.64,0,0,1,174.38,1.925c45.774-4.843,87.365-.156,126.262,9.68,38.111,9.639,73.139,23.213,99.44,45.425,9.05,7.647,20.469,19.887,25.73,33.873,2.855,7.577,1.975,19.033,7.074,23.593,1.028,17.323-.094,34.963-3.982,50.422-3.6,14.3-9.849,28.7-20.48,37.8-3.519,3.013-7.924,4.649-11.412,7.76-19.114,17.031-39.338,34.7-62.971,49.738-14.57,9.271-33.114,19.917-53.955,22.718-1.36-2.044-1.434-6.479,1.5-6.764,2.859-.728-.7,2.487,2.414,2.652,14.58-3.267,30.288-9.566,41.107-17.765,7.65-5.793,14.7-14.2,21.941-21.419,14.514-14.461,29.57-27.85,42.744-43.677,6.5-7.815,14.608-15.728,15.222-25.938-6,1.184-8.824,7.351-13.429,11.079-2.068,1.669-4.91,2.125-7.508,3.642-5.774,3.385-11.326,8.588-16.16,13-2.582,2.361-4.985,3.317-8.263,5.272-6.088,3.624-15.334,10.358-23.5,11.079-1.128,1.3-2.881,3.684-5.313,4.832-5.654,2.655-13.469,1.751-17.5,4.142-1.2.393.686,1.333,1.624.761-2.022,2.52-4.845.375-7.454.62-2.589.243-5.478,1.957-8.215,2.243-2.028.211-4.188-.408-6.054-.1-4.4.737-8.419,3.332-12.92,4.463-10.737,2.7-22.082,3.552-33.316,6.02-.065-1.315.774-1.771-1.208-1.328,1.294.806-5.443,1.461-6.813,1.531-17.573.837-39.306.45-57.162-1.964C172.172,231.813,159.772,232.023,150.523,227.958Zm90.24-129.336c-.876,3.731-3.863,5.893-5.7,8.916,11.108-.959,19.88,13.916,11.429,22.436,3.9,2.813,2.545,12.748,10.561,9.984-2.751-2.273-6.838-10.288-1.927-12.8,2.476,5.578,5.366,11.571,13.713,7.5,9.762-11.189,34.272-21.422,58.38-23.386,15.672-1.278,36.625-1.706,41.667,9.325.174,1.882-2.3,1.808-1.375,4.239,5.517,13.254,27.039,10.513,24.305,31.065,9.613-14.156,22.608-28.9,19.461-51.243-3.024-21.518-21.354-38.133-38.167-49.613C355.524,43.033,336.9,36.02,316.474,29.856,271.554,16.3,226.156,10.48,176.946,15.634c-9.688,1.013-22.321,3-30.02,4.517-37.237,7.343-68.272,18.822-94.375,38.363C30.56,74.976,9.328,99.418,12.059,130.537a51.517,51.517,0,0,0,1.257,8.367A53.615,53.615,0,0,0,25.953,162.67c.875-7.523,3.565-16.026,7.6-19.764-3.656,6.982-10.857,27.271,1.342,28.986-1.14,4.066,6.145,9.158,9.007,9.709-5.267-18.687,3.212-30.9,12.925-41.195,11.7-12.4,26.422-19.961,38.916-29.008-.5-1.728-1.227-2.724-.67-4.43,9.231-3.825,18.338-7.751,31.4-8.748,2.356-10.89,15.1-8.294,25.045-10.819,3.405-.866,5.281-2.546,8.068-3.228,13.627-3.342,18.107,2.542,27.27,3.95,6.874,1.057,18.271-1.187,26.94-1.539,8.894-.36,18.148,2.188,25.421,1.708,3.567-.236,6.854-2.9,10.482-.568-1.9.834-4.035-1.037-4.353,1.154,2.888-.161,4.548,1.342,7.675.856,1.184-1.073-2.109-1.041-2.338-2.158,3.165.842,4.749,3.832,8.613,3.731,3.771-14.91,33.638-7.169,25.327,7.766.5,1.911,4.8,1.761,4.035,3.415-10.56-2.081-19.375-6.545-30.393-8-.364,6.728-1.936,12.57-6.634,16.1,2.689-4.716,6.428-8.663,5.084-16.364a145.994,145.994,0,0,0-18.037-2.822c-3.2,2.633-7.274,6.824-4.7,12.283C237.514,102.931,238.337,100.187,240.763,98.622Zm-82.256-8.247c2.669,1.709,9.9.407,13.431-1.02C167.838,89.8,161.743,87.214,158.507,90.375ZM133.43,97.667c5.259.2,10.927-2.973,17.08-3.574C147.728,90.226,133.865,93,133.43,97.667Zm64.018,24.087c-5.712,9.318-12.327-3.249-16.546-9.587-5.828-8.778-10.89-14.309-18.14-16.9-6.987,1.259-14.621,2.034-19.389,4.931,18.259,2.326,30.526,15.936,39.977,28.206-14.288-4.227-29.383-30.825-47.454-21.041,9.421,2.443,15.932,8.837,24.514,12.416-.764,1.084-.841.525-.191,2.044,4.57,3.482,10.136,5.619,11.151,13.922-10.993,4-17.7-7.45-26.263-10.642a93.942,93.942,0,0,0-40.341,26.205c-1.039,1.16-3.9,2.661-2.853,4.456,10.993-6.764,21.156-16.827,34.538-21.3a36.846,36.846,0,0,1,6.891-1.039c-8.742,5.063-17.435,10.168-23.592,17.139,30.2-3.379,51.348,5.5,72.6,14.237-9.38.405-19.3-4.21-30.252-7.02-10.521-2.708-23.3-3.3-35.064-2.273-9.979.878-18.042,2.5-18.01,10.763,26.177.492,56.805-5.051,77.026,3.5q16.291-6.562,32.768-12.985c-3.87-.3-9.127,1.3-10.855-1.888,4.106.622,9.864-1.116,12.648-2.909-3.563-3.277-9.872-2.831-11.4-8.86-3,.451-4.824,1.8-7.793,1.681-7-.294-15.809-10.666-10.957-15.966,4.089,2.553,6,8.058,10.141,10.553,10.332.25,11.338-6.365,10.593-13.172-14.555-7.753-16.449-42.186-42.531-31.846C180.88,99.959,186.232,114.828,197.448,121.754Zm15.2.731c.716-2.968.723-6.463,1.046-9.721.838-2.154,4.444-2.262,5.395-4.334-10.7,2.629-19.869-12.27-10.274-18.083a115.834,115.834,0,0,0-18.008.7C199.974,98.982,203.963,113.919,212.653,122.485Zm1.613-19.364c1.48-2.073,3.8-.338,5.905-.89,5.431-1.436,9.477-6.22,7.794-11.744C218.236,86.744,204.144,95.663,214.266,103.121Zm-78.814,1.29c-2.931.012-7.634-.7-10.409,1.064C128.027,105.694,133.008,107.1,135.452,104.411ZM261.827,91.429a140.565,140.565,0,0,0,20.109,6.531C288.976,85.632,264.983,79.707,261.827,91.429Zm-148.71,28.422c-22.2,2.764-34.643,16.99-41.081,31.353-2.4,5.35-2.931,11.872-7.692,15.749-2.594-1.026-2.88-5.181-4.216-7.917a192.436,192.436,0,0,1,18.593-26.954c-1.8-.133-1.823-2.668-3.469-3-12.328,9.311-33.858,26.973-27.783,49.471,1.774,6.554,8.37,14.873,15.806,14.727-.8,1.289-.771,1.461.37,2.464,4.569,1.7,8.21,4.672,13.413,5.524,5.268-4.7,4.749-9.527,9.045-13.434,16.44-14.926,45.389-9.868,67.575-9.165,11.265.356,20.047-.874,27.259-6.111-11.353-5.461-30.2-6.108-48.456-4.28a153.246,153.246,0,0,0-24.527,4.193c-7.268,2.013-16.314,4.619-20.843,8.67-5.3,4.74-4.422,16.731-12.595,9.945-.61-1.915,1-2.177.394-4.085a8.916,8.916,0,0,1-5.144-.738c2.1-9.811,8.73-16.29,16.3-22.071,7.316-20.848,27.287-32.35,50.648-41.344A47.657,47.657,0,0,0,113.117,119.851Zm108.02-11.225c1.472-.218,2.953-.441,4.425-.665.051-1.16,1.215-3.733-.174-4.5C222.843,104.347,221.279,105.963,221.137,108.626Zm-4.155,9.179c5.661-6.125,20.885-4.4,22.122,3.217.82,5.048-3.923,8.952-10.554,10.14,2.407.108,3.11,2.51,6.277,1.571,2.194-.883-.362-2.575,2.019-3.322,1.792-.085,2,1.049,3.516-.029,3.462-3.151,6.72-7.417,5.681-12.425-2.265-10.877-23.47-8.082-30.909-1.389.315,3.818-2.933,9.477,1.136,10.9-.2.726-1.883.358-1.823,1.279,2.051.19,2.185,2.968,3.2,4.55,9.891-1.009,17.384-3.361,16.653-13.074-1.9-2.167-5.121-2.543-9.3-1.62-1.744,2.377-4.433,9.5-8.684,5.837C217.94,121.63,216.693,120.207,216.982,117.805Zm66.887,13.085c-12.35,9.252-19.709,18.9-35.941,22.02,2.461,2.194,6.48,2.281,7.511,6.414,4.321-.886,8.239,5.372,2.513,6.667.2-1.214.457-3.546-.667-4.43-21.614-3.464-46.35,9.989-62.413,19.963,14.895-4.962,29.2-11.351,44.38-12.715-23.463,6.929-46.22,16.854-62.561,29.035-1.982,1.484-5.808,3.166-5.088,6.3,18.122-12.141,40.639-23.345,70.68-25.226.763-1.189.33-3.256,1.375-4.231,2.078,3.9,6.613,4.472,11.3,4.839,1.446-6.366,5.5-10.809,9.809-15.062,4.888,1.054,7.085,8.8,4.536,13.4,8.86,9.512,26.813,6.729,43.186,6.075,2.865-3.041,5.109-6.749,10.284-8.589,5.687-2.011,12.522-2.829,14.366-8.2-4.361-1.194-10.257-.326-13.953-2.425,6.526-.524,10.89-1.448,17.372-1.61.98-2.182,1.81-3.944,1.572-6.275-1.572-15.557-22.385-16.522-36.307-17.182,21.275-2.628,39.127,2.134,41.279,23.479,5.542.791,9.506,3.715,15.239,4.249,4.183-3.72,3.317-13.146,1.342-17.819,4.138,3.063,3.98,13.788,3.308,18.626,2.353,1.11,4.5-2.465,6.1-2.934.724-.207.645,1.343,1.627.764,3.506-2.067,10.87-13.058,10.573-16.689-.964-11.756-21.508-9.583-22.059-22.852-.659-1.077-2.3-.843-3.254-1.519,2.214-1,1.934-3.824,2.63-5.933C339.744,106.5,301.8,117.451,283.869,130.89Zm-42.005,1.792c-2.129,7.228,3.04,17.353,9.457,12.663-3.958-1.152-7.232-3.23-7.458-9.437.562-1.921,2.976-2.472,2.211-5.37C244.974,129.753,243.238,132.214,241.864,132.682Zm-13.214,2.49c-4.117-3.55-13.753,2.175-10.279,8.595,4.437-2.058,5.563.283,8.32,1.768C229.084,143.212,231.754,137.843,228.65,135.172ZM88.166,171.422c2.982-1,5.658-2.239,9.127-2.883.353-1.639,1.269-2.856,1.3-4.728C93.508,165.161,90.723,168.209,88.166,171.422Zm136.482-16.016c5.207-1.116,11.908-1.125,16.166-2.939-3.417-.9-4.859-4.476-7.5-6.417C231.41,149.9,228.128,152.722,224.648,155.406Zm-44.787,23.346c1.768.389,3.266-1.614,3.934-.594-2.68,3.964-7.857,2.885-11.929,4.311-7.336,2.57-12.432,9.937-17.564,13.714a22.931,22.931,0,0,0,5.71,1.151c22.213-17.132,51.6-30.791,84.794-38.42C220.208,160.131,195.921,168.4,179.861,178.752ZM87.365,196.2c-.307,1.519-1.014,2.75-.243,5.066-.372,1.914-3.974,1.437-4.55,3.205,8.927,3.5,17.283,7.793,28.01,8.869,1.81-.843-2.186-1.626-.372-2.46,11.636-7.061,30.51-3.516,41.336-6.225-9.384-3.775-23.722-3.845-37.6-2.392-6.794.712-13.879,3.259-17.1.057,3.867-2.647,4.663-5.079,8.038-6.747,8.969-4.425,20.619-3.606,28.769-2.82,4.759.458,10.429,2.726,13.387,2.01,3.068-.743,5.861-5.088,8.041-6.744,3.052-2.31,6.857-3.316,8.542-6.82C140.919,177.4,102.245,180.632,87.365,196.2Zm111.624-.7a166.868,166.868,0,0,1,45-5.268c-.04-1.536-1.4-5.848-2.248-8.215C225.456,185.008,210.523,189,198.989,195.5Zm174.055-27.2c-6.064,5.5-17.32,10.711-26.89,8.576-1.862,2.98-4.805,6.937-9.226,8.932-1.538.694-3.071.153-4.918.737-5.817,1.848-15.872,5.323-21.407,8.259-18.266,9.691-43.528,1.432-53.551-8.044a26.634,26.634,0,0,0-2.144-4.2,53.915,53.915,0,0,0-8.168-.781c-1.022,3.524,1.514,6.915,2.883,9.122,3.983.934,11.009.881,12.134,3.705-2.792.626-3.528-1.538-6.621-.506,16.922,18.294,66.655,10.02,85.043-6.765-.238,1.575-2.165,1.906-1.942,3.819,10.437.52,17.683-5.689,25.045-10.817a166.251,166.251,0,0,0,16.237-12.5C378.312,167.611,375.1,168.851,373.044,168.294Zm-30.51,4.592c.8,4.543,10.921,2.861,13.436-1.012C353.208,169.2,341.451,166.725,342.534,172.886Zm-12.89,7.977c3.671-1.379,10.055-3.065,9.667-5.983C337.346,177.8,332.3,178.453,329.644,180.863Zm-76.662,35.69c-8.826-1.4-15.349-8.315-24.368-11.429-10.141-3.494-28.389-6.328-38.85-.695,24.914.616,46.781,5.363,61.794,19.389,21.36-5.616,48.811-10.6,69.312-21-16.128,3.782-38.554,7.28-52.411,2.857.351,2.655,3.8,7.262.838,8.931-4.6-1.793-7.617-6.931-12.529-9.69-3.379-1.9-8.54-3.765-12.925-5.6-7.388-3.1-12.6-6.673-20.868-4.91C234.908,198.775,248.828,203.618,252.982,216.553Zm-89.568-6.644c2.464,1.038,4.733-1.311,5.043-3.275C165.749,206.115,163.7,207.476,163.414,209.909Zm-3.613,6.082c-.856-.618-2.279-.469-3.6-.467C156,217.169,160.337,217.68,159.8,215.991Zm83.787,15.067c1.029,1.183,5.346.758,5.906-.892A6.767,6.767,0,0,0,243.588,231.058Zm25.516-4.349c.07.633-.524.775-.268,1.552-2.137.049-4.819-.491-6.32,1.455,6.975,1.4,13.753-1.455,20.59-3.6C280.49,222.992,272.718,229.051,269.1,226.709Z"/>
        </g>
        <g>
          <path class="cls-22" d="M424.1,341.039c2.955.007,4.151-.606,6.471.5-1.843,4.959-9.025,4.579-13.935,6.47-.434-.726-.394-1.929-1.99-1.493.591-1.892,3.989-.984,4.479-2.987-1.828-2.39-6.056-4.8-4.479-8.958C420.2,332.408,422.986,337.126,424.1,341.039Z"/>
          <path class="cls-22" d="M413.648,346.015c.293,1.223-3.275,2.42-2.983.5C411.838,346.523,412.13,345.659,413.648,346.015Z"/>
          <path class="cls-22" d="M298.691,357.464c-.656,1.433-3.156,1.02-4.481.5C294.305,356.388,297.886,356.806,298.691,357.464Z"/>
          <path class="cls-22" d="M49.862,362.439c1.356-1.661,4.13-.231,5.974-.5,6.539-.943,13.181-4.882,20.4-6.47,21.745-4.779,45.983-7.771,69.177-10.449,16.7-1.934,35.481-4.052,51.755-4.48,1.669-.046,4.809-1.673,6.965-1,.177.055.9,1.5,1,1.493,1.655-.142,2.769-1.685,4.476-1.99,12.3-2.182,27.019.434,36.826-1.493,2.5-.373-.849,2.023,1.494,1.493,1.974.679,4.406-2.283,6.967,0,1.745-.135-1.25-1.852.5-1.992,3.813.934,8.242-.984,10.948,1.5,3.143.323,3.1-2.544,6.468-1.993-9.9-.367-19.491-.974-28.863.5-24.128-.984-49.008.563-74.147,1.992-27.352,1.558-57.822,3.815-83.609,9.457-9.523,2.083-18.967,3.371-25.379,5.972-3.179,1.288-6.69,4.619-9.457,4.477-2.5-.127-5.5-2.512-5.972-4.976-.37-1.944,1.3-2.975,1.492-4.978.323-3.3-2.005-6.694.5-7.962,3.064-1.935,6.474,1.585,8.957,1.989,7.866,1.29,22.344-3.368,32.35-5.472,36.713-7.722,78.354-9.625,118.437-11.447,67.272-3.054,135.772-1.561,197.078-10.947,1.285-.069-1.983-2.222,0-2.988,4.011-1.927,6.465,1.319,9.95,1.991,12.651,2.452,26.707-5.917,41.806-1.991a51.87,51.87,0,0,1-16.423,1c-3.761,2.419-11.2,2.959-17.916,4.481.034,3.24.7,6.51-2.488,8.458.395,1.763,3.541.769,2.985,3.483-10.718,6.242-28.877,8.669-38.817,11.447-3.324-2.147-5.9,1.549-8.459,2.488-4.6,1.688-11.425,1.344-17.422,1.993-5.072.545-8.9,1.579-13.436.994-2.379-.307-6.2.377-8.96.5-7.441.325-14.124,2.54-20.9.5-26.688,1.81-60.8-.358-94.059,1.991-46.68,3.3-94.64,8.464-138.344,17.919C68.8,370.209,55.458,375.158,49.862,362.439Zm233.4-26.873c1.614,1.555,5.358,1.575,7.464,1.491,8.331-.321,17.008-1.1,27.374-.5.464.532,1.836.154,1.494,1.494,3.174-2.63,11.014-1.07,14.431-1-.1.668-2.067.929,0,1,.635.025.689.639,1.493.5,1.752-1.1-2.115-1.245-.5-1.993,1.033.3,3.271-.614,3.488.5-.008.822-1.38.281-1.5,1,3.444.259,16.319.851,11.944-1,8.89,1.236,12.718-1.07,20.9,0-1.9.094-4.269-.286-4.48,1.5,5.934-.822,11.711.808,12.94-1,12.307.168,26.287-2.222,33.84-8.46-3.128-1.516-2.214-7.074-4.477-9.457C370.258,326.674,323.387,334.526,283.261,335.566Zm-9.453.994c2.829-.651,7.623,2.345,8.457-.994C278.635,336.184,275.729,334.7,273.808,336.56Zm38.317,1.494c1.322-.007,2.932.278,2.987-1C314.086,337.358,311.656,336.255,312.125,338.054Zm11.944,0c1.033-.295,3.27.615,3.486-.5C326.694,336.69,324.478,337,324.069,338.054Z"/>
          <path class="cls-22" d="M332.53,354.975c.567.091.276.5,0,.5-1.547,1.8,2.843.117,1,2.488,1.426.1,2.716.064,2.489-1.492,1.805,1.507,4.032.37,5.971,1,1.941-.453-1.648-1.832,0-1.992,1.409,1.069,5.084,1.474,7.963,1.992.741-.755.8-2.184.994-3.485.831.827,3.635-.316,3.486,1.493,1.79-1.857,5.05-2.248,8.958-1.991-1.042,1.8-2.487,1.233-3.984.5.861,3.438,2.881,1.119,4.978,1.989.675-.152.414-1.246.5-1.989,1.184-.011,2.193,1.15,3.481.5.7-.178.042-.879-.494-1,2.326-1.645,5.352.272,6.967,1,1.49-.329-.479-1.064,0-1.993h4.477c-.118.876-.858,1.136-1.992,1,3.113,1.613,8.71.7,9.954-2.487,2.047-.233-.391,1.248,1,1.99.869.14,2.481-1.4,2.984,0,1.032-.127.135-2.187,1-2.489.9-.032,4.471,1.832,4.479-1,1.59-.749,3.806,1.448,3.483-.5,2.881,3.018,8.595-.406,12.941-.5-20.478,9.911-54.65,11.727-79.628,12.442-2.049.234.478-1.342-1.492-1.5-4.611,1.572-5.265,2.622-9.952.5-.877.122-1.137.858-1,1.992-13.236,1.307-27.852,1.582-43.3,2.487-2.183.526-1.635-1.682-3.485-1.492-.664,1.992-3.4,1.908-5.968,1.992q.575-2.572-1.993-1.992c-1.284.119.682.858,0,1.992-6.871-.838-16.509,3.156-22.395,0-2.1.98-3.492,2.121-4.977,0,.858,1.525-1.308,2.217-2.986.5-1.121,2.336-6.261,2.617-8.461.994-2.453,2.905-5.6.491-8.46.5-5,.017-10.875,2.3-16.419,2.489-25.51.879-54.641,2.987-83.108,4.479-6.6.345-16.208.9-24.386,1.491-14.728,1.063-26.854,5.631-37.823,4.977a6.193,6.193,0,0,1-1-4.478c1.151-1.094,1.651,1.273,3.981.5,17.174-7.248,36.637-7.01,55.74-8.46,11.724-.891,23.605-2.394,35.333-2.986,26.406-1.335,48.99-2.035,74.647-3.981-.044.706-.084,1.409.5,1.491.176-2.294,6.591-2.023,7.465-.5-.216-2.462,10.016-2.917,12.44-.994-2.174-1.344-2.5.8-4.975.5,1.246,3.473,4.263-1.314,6.967.5,3.925-4.727,9.428-.585,15.924-.994.5-1.5-1.108-.885-1.99-1,.775-1.875,4.775-.533,6.47-1.491.062.892-.61,1.047-.5,1.99,5.328.733,7.723.076,12.936,0,.139-1.8-2.178-1.139-2.988-1.99,3.727-.753,8.019-2.371,9.956,1.491,5.012-.533,10.811-.469,15.427-1.491.512-1.673-1.547-.777-2.487-1,.831-.959,4.587-.637,5.473,0,.617,1.61-1.608.377-.993,1.988,2.036.049,2.259-1.718,2.983-2.984h4.979c.083,1.079-1.766.225-2.488.5-.152,1.149,1.437.554,1.49,1.5,1.979-1.838,4.851-2.779,8.958-2.491.563,1.565-.142,1.317.5,2.491.5-2.136,2.85-1.235,3.482,1.491.919-.075.3-1.685,1-1.99,2.074.955,2.906.955,4.976,0,.245-1.561-1.715-1.314-.5-2.488C331.745,355.515,332.445,355.554,332.53,354.975Zm-15.924,1.989c-.348,1.842,1.745,1.242,2.49,1.991C319,357.558,318.228,356.835,316.606,356.964Zm-32.846,1.991c-.15,1.311.688,1.633,1.99,1.494C286.127,358.7,284.448,358.221,283.76,358.955Zm-1.99,4.481c1.117-1.7,5.663.023,6.469-1.99C286.276,362.43,280.389,360.213,281.77,363.436Zm7.461-.5c1.294-.533,3.338-.316,3.986-1.491C291.217,361.268,289.575,361.451,289.231,362.937Z"/>
        </g>
        <path class="cls-23" d="M275.644,149.715a55.08,55.08,0,0,1,36.287-22.291c24.366-3.63,45.62-2.59,54.952,14.516s3.628,24.364-2.594,25.4,5.183-8.294-5.184-17.625-17.626-9.849-31.1-9.33,22.809,4.665,9.849,7.777-6.221-2.077-24.364-.52-28.513,5.184-33.179,9.331S270.977,155.938,275.644,149.715Z"/>
        <path class="cls-24" d="M26.52,100.828S29.975,87.7,36.543,81.472s7.258,0,7.258,0l1.035,12.789-6.025,12.124s-7.1,2.045-5.723-4.868.346-8.294,3.111-11.4,3.8,3.8,3.8,3.8-5.528,6.565-3.109,5.875l6.22-7.6-3.8-8.3s-7.948,7.256-8.292,11.751-.348,13.821,2.761,15.552,9.678-.693,11.751-6.223S50.021,90.8,50.021,90.8L46.565,73.87S31.358,81.817,29.283,87.348s-5.528,13.48-5.183,16.587,3.113,8.988,2.767,11.753.346,8.639-1.038,11.4-6.565,2.764-6.565,2.764l1.037-5.184,2.071-.689a16.145,16.145,0,0,0,.349-6.911c-.7-3.456-2.42-3.8-2.42-3.8s-3.457-.689-3.457,4.84-5.532,18.663,1.038,17.625,8.636-.694,10.366-7.6,1.039-9.678.691-14.514S25.138,102.9,26.52,100.828Z"/>
        <path class="cls-24" d="M75.85,56.59s5.337-9.014,13.908-11.906,9.9,1.582,9.9,1.582L95.233,58.309l-6.494,7.112s-11.368.25-7.217-5.449,3.792-7.384,7.609-9.049.1,4.952.1,4.952-3.248,4.816-.759,5.2l6.064-5.375.031-9.126S84.3,49.834,82.107,53.768s-6.115,12.4-4.013,15.279,9.078,3.43,13.281-.721,13.063-11.148,13.063-11.148l-2.413-18.757s-13.81,2.941-18.012,7.092S73.342,55.431,72.35,58.4s-.944,9.464-2.415,11.829-1.6,5.949-4.018,7.884-9.669-1.987-9.669-1.987l3.8-8.92,2.326,8.664a16.159,16.159,0,0,0,3.214-6.127c.822-3.428-.605-4.469-.605-4.469s-4.846-5.131-7.163-.11S47.345,79.694,53.737,81.507s10.216,4.152,14.685-1.4,3.676-5.99,5.386-10.525S73.726,57.894,75.85,56.59Z"/>
        <path class="cls-24" d="M107.408,41.374l2.766,14.167s7.537,1.38,14.1-2.42,7.6-7.605,7.6-9.33-2.418-6.567,0-8.986,10.368-4.838,13.478-4.147,3.454,4.838,3.454,4.838l.346,6.22s-6.22,2.765-6.22,1.036-2.077-4.836-.347-4.836,3.111,1.038,3.111,0-2.419-4.148-2.419-4.148-5.531.345-5.876,1.728a61.794,61.794,0,0,0-.345,7.256s3.457,4.149,5.186,4.149,10.367-3.11,10.367-3.11l-1.035-13.133-5.532-4.149-16.934,3.8a7.637,7.637,0,0,0-2.766,6.222c.347,3.8,1.384,9.33,1.384,9.33s-2.421,4.5-3.456,4.839-8.639,1.726-8.639.344-1.039-7.6-1.039-7.6l3.8-1.731,3.111-.342s2.073,2.762.343,2.762-4.492,1.728-4.492,1.728l4.492,1.382,2.768-3.455-.346-7.6L118.4,33.078Z"/>
        <path class="cls-24" d="M155.381,29.62l1.385,12.441,8.638-2.073,8.292-3.11.35-8.294,4.834-3.8,6.916-.693,6.221,1.731L191.324,31l-4.839.345V28.584h-6.567l-.344,5.184,8.059,3.014,9.218-2.669-.343-11.059-6.567-2.072-12.1,1.381s-6.565-.692-7.948,2.419a15.957,15.957,0,0,0-1.037,6.911l-1.382,4.5-6.914,1.379-.689-5.875,4.146,1.038,2.076.347.343-7.258-3.455-1.731-6.569,1.385Z"/>
        <path class="cls-24" d="M202.038,20.982,201,33.768l5.872,3.11,6.912-.689,4.149-4.5V26.165l3.453-2.762,10.368,1.033,3.8,1.384-1.037,6.221-2.073,1.381-4.148.346L227.607,31l2.765-.692-.691-3.112h-7.6l1.037,6.913,7.949,2.765,7.948-1.382.691-13.133s-7.256-.347-11.75-1.037-11.4-1.037-11.4-1.037l-2.422,3.8L213.438,31s-1.727,3.8-2.764,3.8-5.183-2.42-5.183-2.42l1.037-6.22,3.8,2.073V22.363Z"/>
        <path class="cls-25" d="M283.061,39.916l1.258-12.768L278.5,23.935l-6.925.571-4.225,4.423-.093,5.528-3.5,2.7-10.349-1.216L249.629,34.5l1.141-6.2,2.1-1.341,4.151-.276.645,2.776-2.777.643.638,3.123,7.6.132-.916-6.934-7.9-2.9-7.971,1.245-.919,13.116s7.251.471,11.733,1.242,11.382,1.23,11.382,1.23l2.487-3.756.81-6.9s1.792-3.772,2.829-3.754,5.14,2.511,5.14,2.511l-1.142,6.2L274.9,32.515l-.1,5.872Z"/>
      </g>
    </g>
  </g>
</svg>
